<svg id="svg" version="1.1" xmlns="http://www.w3.org/2000/svg" xmlns:xlink="http://www.w3.org/1999/xlink" width="400" height="400" viewBox="0, 0, 400,400"><g id="svgg"><path id="path0" d="M0.000 200.000 L 0.000 400.000 200.000 400.000 L 400.000 400.000 400.000 200.000 L 400.000 0.000 200.000 0.000 L 0.000 0.000 0.000 200.000 M204.800 80.589 C 213.361 81.367,213.835 82.058,211.653 90.578 C 211.093 92.767,210.663 92.645,220.027 92.954 C 247.178 93.849,259.280 98.088,272.642 111.381 C 277.791 116.503,278.658 118.114,277.273 119.986 C 276.579 120.926,276.530 121.231,276.948 122.045 C 279.163 126.365,280.117 132.144,280.178 141.616 C 280.212 146.997,280.405 150.676,280.691 151.416 C 281.742 154.133,283.341 163.540,284.021 171.000 C 284.875 180.375,285.583 191.297,285.591 195.220 C 285.596 197.541,285.754 199.611,285.942 199.820 C 286.383 200.309,285.828 206.427,285.245 207.517 C 285.000 207.974,284.816 209.214,284.836 210.274 L 284.872 212.200 285.272 210.800 C 285.492 210.030,285.819 209.220,285.999 209.000 C 287.803 206.792,289.362 202.033,288.655 200.889 C 288.258 200.246,289.549 200.705,290.541 201.560 C 293.370 203.997,294.345 213.008,292.842 222.824 C 292.372 225.894,292.287 226.484,290.574 238.600 C 289.506 246.152,288.946 248.362,287.430 251.000 C 286.700 252.270,286.456 253.471,286.247 256.830 C 285.468 269.337,282.341 279.470,276.443 288.600 C 275.121 290.646,270.631 296.918,269.643 298.098 C 269.228 298.594,267.539 300.620,265.889 302.600 C 256.627 313.719,249.346 319.132,239.397 322.296 C 217.725 329.187,200.907 325.725,173.336 308.697 C 167.560 305.130,158.452 297.423,153.800 292.167 C 152.260 290.427,150.664 288.643,150.254 288.202 C 149.844 287.761,147.612 284.895,145.294 281.834 C 140.652 275.704,140.479 275.486,138.252 272.957 C 136.454 270.915,136.368 270.899,133.997 272.143 C 127.445 275.581,122.654 271.665,114.736 256.400 C 105.778 239.129,103.986 227.173,109.600 222.125 C 110.992 220.872,111.374 220.982,110.539 222.395 C 109.772 223.694,110.446 224.756,112.057 224.787 C 113.803 224.821,119.515 228.658,122.899 232.071 C 127.058 236.265,127.603 236.431,127.592 233.500 C 127.579 229.848,125.316 224.470,123.770 224.415 C 123.533 224.407,122.903 223.928,122.370 223.350 L 121.400 222.301 122.360 222.596 C 123.415 222.921,123.413 223.141,122.403 218.200 C 121.516 213.859,120.779 209.455,120.395 206.200 C 119.587 199.359,119.233 196.589,118.810 193.800 C 116.947 181.512,116.392 171.097,117.210 163.800 C 118.330 153.819,119.892 146.451,122.660 138.089 C 125.326 130.035,125.379 129.442,123.898 124.336 C 121.805 117.124,125.990 114.497,140.200 114.104 C 145.548 113.957,147.709 113.748,148.600 113.295 C 149.825 112.671,157.085 105.416,161.386 100.517 C 164.079 97.451,170.653 91.652,173.507 89.828 C 174.548 89.162,175.490 88.523,175.600 88.409 C 176.505 87.464,184.622 83.640,188.291 82.429 C 192.628 80.997,198.938 79.950,201.400 80.254 C 201.840 80.309,203.370 80.460,204.800 80.589 M174.600 153.587 C 165.666 153.925,156.797 156.100,152.200 159.079 C 149.483 160.840,146.000 164.790,146.000 166.110 C 146.000 166.519,145.814 166.733,145.584 166.590 C 145.314 166.423,145.259 166.698,145.429 167.372 C 145.583 167.988,145.485 168.656,145.188 169.015 C 144.504 169.838,144.944 170.165,145.984 169.609 C 146.782 169.182,146.803 169.207,146.318 170.000 C 145.879 170.720,145.900 170.923,146.461 171.340 C 146.911 171.675,147.054 172.185,146.909 172.944 C 146.791 173.557,146.893 174.450,147.134 174.929 C 147.992 176.633,149.200 180.795,149.213 182.087 C 149.220 182.809,149.490 183.749,149.813 184.176 C 150.556 185.160,150.569 188.267,149.834 189.675 C 149.283 190.731,149.290 190.742,150.239 190.310 C 150.769 190.068,151.338 190.014,151.502 190.190 C 151.666 190.366,151.575 190.590,151.300 190.688 C 151.025 190.786,150.800 191.144,150.800 191.482 C 150.800 191.984,150.911 192.006,151.400 191.600 C 151.901 191.184,152.000 191.242,152.000 191.951 C 152.000 192.418,151.820 192.800,151.600 192.800 C 151.380 192.800,151.200 193.149,151.200 193.576 C 151.200 194.003,151.380 194.464,151.600 194.600 C 151.820 194.736,152.000 194.644,152.000 194.395 C 152.000 193.623,153.272 192.625,154.361 192.543 C 154.932 192.500,155.522 192.450,155.671 192.432 C 155.821 192.415,156.181 192.164,156.471 191.877 C 161.903 186.497,177.592 183.868,189.136 186.402 C 197.518 188.243,199.600 189.780,199.600 194.128 C 199.600 199.017,196.088 201.503,192.039 199.480 C 191.290 199.106,190.381 198.800,190.019 198.800 C 189.656 198.800,189.189 198.648,188.980 198.461 C 186.057 195.857,173.076 196.281,167.548 199.162 C 163.467 201.289,162.591 201.815,160.317 203.504 C 159.061 204.437,157.846 205.200,157.617 205.200 C 157.388 205.200,157.200 205.380,157.200 205.600 C 157.200 205.820,156.818 206.000,156.351 206.000 C 155.653 206.000,155.588 206.104,155.985 206.582 C 156.263 206.917,156.329 207.386,156.141 207.682 C 155.961 207.967,155.672 210.270,155.499 212.800 C 155.326 215.330,155.081 218.635,154.956 220.144 C 154.811 221.890,154.886 223.046,155.164 223.324 C 155.711 223.871,155.736 225.200,155.200 225.200 C 154.548 225.200,154.745 226.293,155.445 226.562 C 155.957 226.759,155.992 226.928,155.612 227.386 C 155.349 227.703,155.253 228.338,155.400 228.800 C 155.549 229.268,155.449 229.900,155.174 230.231 C 154.811 230.668,154.794 231.069,155.110 231.762 C 155.427 232.459,155.402 232.960,155.012 233.713 C 154.670 234.371,154.623 234.863,154.876 235.116 C 155.129 235.369,155.087 235.791,154.757 236.320 C 154.386 236.914,154.367 237.280,154.684 237.668 C 154.923 237.960,155.065 238.678,154.999 239.263 C 154.933 239.848,155.122 241.726,155.419 243.437 C 155.716 245.148,156.077 249.170,156.222 252.374 C 156.366 255.578,156.660 258.920,156.875 259.800 C 157.090 260.680,157.412 262.210,157.591 263.200 C 157.769 264.190,158.394 266.260,158.979 267.800 C 159.565 269.340,160.215 271.158,160.424 271.840 C 161.913 276.692,170.025 286.646,175.144 289.900 C 176.385 290.689,178.075 292.025,178.900 292.868 C 179.724 293.710,180.585 294.400,180.813 294.400 C 181.325 294.400,186.931 298.193,187.586 298.984 C 187.849 299.300,188.680 299.762,189.432 300.011 C 190.184 300.259,190.800 300.723,190.800 301.041 C 190.800 301.359,191.215 301.778,191.723 301.971 C 192.230 302.163,193.175 302.744,193.823 303.261 C 194.470 303.777,195.630 304.545,196.400 304.966 C 197.170 305.388,198.373 306.227,199.074 306.831 C 199.774 307.435,200.764 308.047,201.274 308.190 C 201.783 308.333,202.560 308.612,203.000 308.811 C 208.367 311.228,217.349 312.367,223.825 311.452 C 226.451 311.080,229.283 310.688,230.117 310.581 C 230.952 310.473,231.942 310.209,232.317 309.995 C 232.693 309.780,234.050 309.225,235.333 308.761 C 236.616 308.297,238.236 307.441,238.934 306.859 C 239.632 306.277,240.492 305.620,240.847 305.400 C 244.686 303.015,251.120 298.082,251.172 297.483 C 251.188 297.308,251.666 296.678,252.236 296.083 C 252.805 295.487,253.747 294.280,254.328 293.400 C 255.536 291.570,258.485 287.499,258.819 287.200 C 258.942 287.090,259.568 286.280,260.212 285.400 C 260.855 284.520,262.735 282.250,264.390 280.356 C 268.318 275.861,272.400 270.486,272.400 269.808 C 272.400 269.691,272.863 268.652,273.428 267.498 C 276.203 261.835,278.113 245.979,276.245 244.112 C 276.105 243.972,276.099 243.280,276.231 242.574 C 276.374 241.814,276.292 241.180,276.029 241.018 C 275.786 240.868,275.688 240.581,275.812 240.381 C 275.936 240.180,275.857 239.680,275.637 239.270 C 275.368 238.767,275.373 238.387,275.652 238.108 C 275.937 237.823,275.900 237.415,275.533 236.795 C 275.140 236.132,275.122 235.851,275.465 235.726 C 275.807 235.601,275.785 235.277,275.382 234.499 C 275.015 233.793,274.964 233.285,275.226 232.968 C 275.443 232.707,275.604 231.978,275.584 231.347 C 275.539 229.910,276.360 226.364,276.891 225.705 C 277.527 224.915,276.931 223.905,276.002 224.199 C 275.479 224.365,275.194 224.270,275.184 223.927 C 275.175 223.637,274.897 223.899,274.566 224.509 C 274.235 225.120,274.091 225.840,274.246 226.109 C 274.401 226.379,274.389 226.475,274.219 226.321 C 274.049 226.168,273.222 226.912,272.383 227.974 C 268.043 233.464,257.652 237.106,247.649 236.642 C 244.346 236.489,242.911 236.262,242.417 235.816 C 242.043 235.477,241.362 235.200,240.904 235.200 C 240.446 235.200,239.605 234.646,239.036 233.969 C 237.946 232.674,237.603 232.855,238.560 234.222 C 239.040 234.907,239.040 235.131,238.560 235.787 C 238.252 236.208,238.000 236.961,238.000 237.460 C 238.000 240.186,233.421 239.362,231.914 236.365 C 230.313 233.181,227.062 214.609,227.123 209.000 C 227.160 205.632,228.458 200.793,229.338 200.744 C 230.155 200.698,231.200 200.254,231.200 199.953 C 231.200 199.759,232.267 199.600,233.571 199.600 C 235.106 199.600,236.004 199.424,236.119 199.100 C 236.217 198.825,236.232 199.105,236.154 199.723 C 236.023 200.746,236.067 200.790,236.642 200.215 C 237.155 199.702,237.191 199.351,236.836 198.332 C 234.732 192.297,237.788 190.876,247.800 193.235 C 250.660 193.909,253.810 194.611,254.800 194.794 C 255.790 194.977,258.286 195.502,260.347 195.961 C 263.969 196.767,267.200 196.761,267.200 195.949 C 267.200 195.757,267.060 195.600,266.889 195.600 C 266.719 195.600,266.567 194.835,266.552 193.900 C 266.537 192.965,266.314 190.220,266.055 187.800 C 265.796 185.380,265.485 181.510,265.363 179.200 C 265.242 176.890,264.989 174.640,264.802 174.200 C 264.513 173.522,264.283 171.452,263.846 165.600 C 263.735 164.104,261.813 161.360,258.860 158.478 L 256.226 155.908 255.579 157.451 C 254.908 159.050,254.926 160.879,255.634 163.075 C 256.683 166.327,255.678 170.407,253.830 170.398 C 252.511 170.391,250.184 169.388,248.509 168.103 C 241.606 162.809,224.713 156.422,212.400 154.451 C 206.696 153.537,187.486 153.098,174.600 153.587 M153.252 193.337 C 152.816 193.862,153.019 194.400,153.653 194.400 C 153.828 194.400,154.165 194.040,154.400 193.600 C 154.909 192.649,153.997 192.439,153.252 193.337 M200.561 201.895 C 200.724 202.057,201.429 202.217,202.128 202.250 C 206.188 202.443,208.488 203.863,207.770 205.735 C 207.659 206.023,207.941 206.255,208.450 206.294 C 209.753 206.392,210.021 206.861,210.131 209.235 C 210.187 210.426,210.438 211.772,210.691 212.227 C 210.964 212.719,211.243 216.119,211.381 220.627 C 211.509 224.792,211.715 229.043,211.840 230.073 C 212.536 235.806,208.606 240.152,204.835 237.821 C 204.645 237.704,204.268 237.877,203.996 238.204 C 203.146 239.228,202.802 238.867,202.753 236.900 L 202.706 235.000 202.385 236.911 C 202.073 238.764,200.705 240.778,199.749 240.793 C 199.501 240.797,199.065 241.080,198.781 241.423 C 198.160 242.172,196.120 243.087,193.400 243.838 C 190.810 244.553,190.592 244.540,191.251 243.704 C 191.553 243.322,191.201 243.502,190.469 244.104 L 189.139 245.200 182.195 245.200 C 175.182 245.200,173.864 245.007,172.662 243.805 C 172.278 243.421,172.000 243.337,172.000 243.604 C 172.000 244.261,169.325 243.837,168.445 243.041 C 168.056 242.688,167.436 242.400,167.069 242.400 C 166.701 242.400,166.040 242.040,165.600 241.600 C 165.160 241.160,164.516 240.800,164.169 240.800 C 163.821 240.800,162.876 240.119,162.069 239.287 C 161.261 238.455,160.325 237.830,159.989 237.899 C 159.425 238.015,158.554 237.347,157.300 235.836 C 157.025 235.505,156.800 234.611,156.800 233.850 C 156.800 233.089,156.610 232.403,156.379 232.326 C 156.091 232.230,156.083 231.870,156.353 231.193 C 156.632 230.494,156.757 230.408,156.775 230.900 C 156.814 231.998,157.476 231.719,157.723 230.500 C 157.845 229.895,158.317 229.003,158.773 228.517 C 159.228 228.031,159.603 227.491,159.607 227.317 C 159.621 226.626,163.926 222.973,166.343 221.600 C 166.925 221.270,167.490 220.901,167.600 220.780 C 167.710 220.660,168.633 220.207,169.650 219.774 C 170.668 219.341,171.928 218.674,172.450 218.292 C 172.973 217.910,173.959 217.193,174.642 216.698 C 175.325 216.204,175.886 215.620,175.887 215.400 C 175.892 214.691,177.726 213.966,178.114 214.519 C 178.324 214.818,178.367 214.692,178.227 214.187 C 177.998 213.363,178.670 213.045,182.484 212.170 C 183.080 212.033,183.777 211.669,184.033 211.361 C 184.289 211.052,185.172 210.800,185.995 210.800 C 187.446 210.800,189.600 209.588,189.600 208.771 C 189.600 208.169,191.196 206.731,191.232 207.300 C 191.249 207.575,191.442 207.260,191.661 206.600 C 192.398 204.376,192.902 203.655,194.053 203.178 C 194.684 202.917,195.200 202.554,195.200 202.372 C 195.200 202.191,196.145 201.976,197.300 201.895 C 198.455 201.814,199.595 201.715,199.833 201.674 C 200.072 201.633,200.399 201.733,200.561 201.895 M290.267 225.867 C 289.842 226.291,289.958 229.200,290.400 229.200 C 290.620 229.200,290.800 228.390,290.800 227.400 C 290.800 225.569,290.739 225.394,290.267 225.867 M157.200 229.400 C 157.608 229.891,157.580 230.000,157.049 230.000 C 156.692 230.000,156.400 229.730,156.400 229.400 C 156.400 229.070,156.468 228.800,156.551 228.800 C 156.634 228.800,156.926 229.070,157.200 229.400 M289.019 229.569 C 288.870 229.810,288.865 230.374,289.007 230.823 C 289.150 231.271,289.095 231.855,288.887 232.119 C 288.464 232.655,288.107 234.023,287.613 237.000 C 287.431 238.100,287.160 239.450,287.011 240.000 C 286.751 240.963,286.764 240.971,287.370 240.224 C 287.717 239.796,288.001 239.616,288.002 239.824 C 288.008 240.610,289.042 238.114,289.503 236.200 C 290.415 232.421,290.081 227.850,289.019 229.569 M110.082 237.317 C 109.587 237.934,109.257 240.800,109.680 240.800 C 109.856 240.800,110.000 241.245,110.000 241.790 C 110.000 243.605,115.151 255.194,117.561 258.800 C 117.928 259.350,118.475 260.289,118.775 260.887 C 121.288 265.888,131.307 272.015,132.227 269.114 C 132.638 267.821,130.773 264.427,127.800 261.054 C 124.610 257.435,119.991 249.289,118.357 244.400 C 118.100 243.630,117.570 242.640,117.180 242.200 C 116.789 241.760,116.409 240.955,116.335 240.410 C 116.261 239.866,115.796 239.220,115.303 238.975 C 114.809 238.729,114.089 238.255,113.703 237.919 C 112.730 237.076,110.565 236.715,110.082 237.317 M236.682 250.393 C 242.696 255.124,244.204 269.627,239.224 274.838 C 233.593 280.730,216.007 278.637,212.944 271.711 C 210.290 265.710,213.216 254.936,217.160 256.187 C 218.090 256.482,218.143 256.791,218.030 261.200 C 217.845 268.409,223.272 271.609,231.429 269.101 C 233.053 268.602,236.800 265.665,236.800 264.892 C 236.800 264.669,237.093 264.373,237.451 264.236 C 238.591 263.798,237.805 260.402,235.583 256.167 C 232.738 250.745,233.310 247.740,236.682 250.393 M250.000 280.386 C 250.000 280.598,248.560 282.213,246.800 283.976 C 243.602 287.178,243.071 288.000,244.200 288.000 C 245.658 288.000,241.577 292.828,238.575 294.654 C 237.901 295.065,236.731 295.804,235.975 296.299 C 235.219 296.793,234.116 297.198,233.524 297.199 C 232.932 297.199,232.346 297.363,232.223 297.562 C 232.100 297.762,231.682 297.842,231.294 297.741 C 230.906 297.639,228.522 297.948,225.995 298.427 C 219.149 299.725,218.896 299.743,217.079 299.077 C 216.155 298.738,214.772 298.334,214.005 298.178 C 209.362 297.235,202.232 293.207,202.500 291.678 C 202.555 291.363,202.241 290.902,201.802 290.653 C 201.364 290.404,199.942 289.480,198.643 288.600 C 196.789 287.345,195.798 286.957,194.040 286.800 C 191.978 286.616,191.790 286.516,191.678 285.546 C 191.376 282.943,195.242 281.967,197.800 284.000 L 199.310 285.200 204.755 285.197 C 217.919 285.189,239.166 282.736,246.400 280.388 C 247.814 279.929,250.000 279.927,250.000 280.386 " stroke="none" fill="#f9e7a3" fill-rule="evenodd"></path><path id="path1" d="M196.800 81.214 C 192.162 81.659,187.850 82.955,182.009 85.662 C 173.525 89.594,169.534 92.902,155.200 107.886 C 148.504 114.886,148.685 114.800,140.528 114.800 C 133.516 114.800,131.926 115.092,127.297 117.227 C 123.315 119.064,123.202 119.303,124.377 123.383 C 126.012 129.063,125.945 130.116,123.468 137.625 C 120.787 145.752,119.478 151.714,117.969 162.661 C 117.450 166.425,117.691 181.363,118.345 186.000 C 119.090 191.284,119.516 194.427,120.568 202.400 C 122.915 220.189,123.799 223.387,127.426 227.200 C 128.524 228.355,128.833 229.090,129.188 231.400 C 129.424 232.940,129.795 235.100,130.011 236.200 C 130.227 237.300,130.671 239.578,130.998 241.263 C 131.974 246.297,132.318 246.808,134.733 246.794 C 137.674 246.777,137.645 242.582,134.576 224.429 C 133.254 216.614,133.197 217.446,135.913 205.000 C 136.898 200.486,137.501 196.084,137.802 191.200 C 138.853 174.174,143.282 162.694,150.500 158.286 C 160.831 151.975,165.399 150.808,176.800 151.562 C 192.150 152.578,214.356 151.738,223.814 149.784 C 228.552 148.806,231.601 149.793,247.200 157.354 C 252.720 160.030,255.193 159.457,255.199 155.500 C 255.201 153.986,255.784 154.078,259.973 156.251 C 264.308 158.500,265.088 158.435,266.657 155.696 C 267.254 154.653,267.795 153.731,267.859 153.646 C 268.222 153.164,273.161 158.420,274.162 160.355 C 278.392 168.525,281.716 184.643,282.771 202.100 C 283.834 219.697,284.129 223.501,284.543 225.000 L 284.986 226.600 285.126 224.800 C 285.299 222.582,284.488 213.214,283.923 210.905 C 283.563 209.438,283.630 208.953,284.417 207.305 L 285.327 205.400 284.850 193.200 C 284.588 186.490,284.196 179.290,283.979 177.200 C 282.450 162.465,281.786 157.902,280.399 152.600 C 279.697 149.914,279.544 147.987,279.447 140.600 C 279.327 131.490,279.003 129.279,277.013 124.000 C 275.900 121.049,275.818 120.334,276.543 119.928 C 280.627 117.643,264.656 103.116,253.483 98.953 C 252.557 98.608,251.440 98.177,251.000 97.995 C 248.458 96.945,242.204 95.707,233.000 94.434 C 230.506 94.089,215.278 93.217,211.500 93.203 C 210.625 93.199,210.576 91.737,211.359 88.973 C 212.265 85.770,212.440 83.808,211.886 83.050 C 210.891 81.689,202.497 80.667,196.800 81.214 M174.000 186.412 C 172.790 186.589,170.941 186.863,169.891 187.020 C 168.841 187.177,167.885 187.462,167.767 187.653 C 167.649 187.844,167.286 188.000,166.961 188.000 C 162.727 188.000,152.982 195.508,152.022 199.508 C 150.696 205.037,154.215 206.246,160.075 202.277 C 163.451 199.990,165.447 198.901,169.600 197.082 C 173.578 195.341,182.330 195.137,187.000 196.678 C 195.386 199.445,195.071 199.377,196.176 198.652 C 198.956 196.831,199.119 189.600,196.380 189.600 C 196.166 189.600,195.228 189.256,194.296 188.836 C 190.288 187.029,179.000 185.681,174.000 186.412 M239.600 193.131 C 235.518 193.726,238.787 204.456,243.331 205.376 C 243.809 205.473,245.730 205.749,247.600 205.990 C 249.470 206.231,251.630 206.516,252.400 206.623 C 273.568 209.567,274.930 209.507,275.436 205.600 C 275.903 201.996,274.402 200.498,269.237 199.416 C 267.567 199.066,265.570 198.609,264.800 198.402 C 262.733 197.845,256.811 196.368,255.200 196.008 C 254.430 195.836,252.090 195.300,250.000 194.817 C 244.728 193.598,240.782 192.959,239.600 193.131 M255.800 212.659 C 249.103 214.054,244.653 216.674,241.809 220.897 C 240.260 223.197,240.097 223.691,241.000 223.345 C 241.459 223.169,241.602 223.430,241.610 224.457 C 241.642 228.887,243.670 232.909,247.041 235.228 C 249.910 237.202,251.340 236.766,249.100 234.600 C 247.456 233.011,246.439 231.674,245.906 230.400 C 245.676 229.850,245.226 228.796,244.905 228.058 C 244.529 227.192,244.460 226.580,244.711 226.329 C 244.961 226.079,245.197 226.333,245.376 227.046 C 246.702 232.330,253.083 234.715,257.917 231.733 C 263.242 228.448,263.868 220.255,259.034 217.123 C 257.354 216.034,257.117 215.396,258.700 216.221 C 259.305 216.537,259.988 216.796,260.219 216.798 C 260.734 216.801,263.135 219.307,264.437 221.200 C 265.261 222.397,265.399 223.067,265.395 225.828 C 265.390 228.674,265.449 228.941,265.895 228.083 C 269.200 221.711,262.379 211.289,255.800 212.659 M265.968 213.057 C 269.701 214.364,273.427 217.721,275.184 221.362 L 276.132 223.325 276.866 222.418 C 279.854 218.728,272.680 212.327,265.658 212.419 L 264.200 212.438 265.968 213.057 M250.977 218.504 C 252.469 221.276,249.676 224.084,246.904 222.600 C 245.141 221.656,244.854 220.704,245.803 218.942 C 247.275 216.210,249.633 216.010,250.977 218.504 M176.600 218.578 C 164.871 220.855,155.035 230.496,158.727 236.095 C 159.462 237.208,160.400 236.989,160.400 235.704 C 160.400 232.900,165.793 226.564,170.518 223.818 C 173.043 222.350,173.168 222.639,171.213 225.430 C 169.468 227.920,168.399 230.867,168.402 233.173 C 168.411 238.672,173.155 245.424,176.193 244.258 C 176.654 244.081,176.477 243.692,175.395 242.515 C 174.630 241.682,174.003 240.775,174.002 240.500 C 174.001 240.225,173.864 240.000,173.698 240.000 C 172.617 240.000,171.831 235.295,172.191 230.976 C 172.510 227.141,173.544 225.586,176.280 224.826 C 178.188 224.297,178.811 224.302,177.887 224.839 C 177.222 225.226,177.242 225.335,178.187 226.458 C 179.355 227.846,179.424 228.407,178.615 229.971 C 177.818 231.512,174.896 232.325,174.200 231.200 C 172.665 228.717,171.759 233.240,173.144 236.467 C 177.024 245.503,190.647 242.662,190.583 232.830 C 190.559 229.169,187.798 224.808,185.500 224.802 C 185.115 224.801,184.800 224.620,184.800 224.400 C 184.800 222.850,191.360 227.243,192.117 229.300 C 192.259 229.685,192.537 230.000,192.735 230.000 C 193.455 230.000,194.107 233.565,193.851 236.099 C 193.601 238.572,193.605 238.585,194.199 237.254 C 195.994 233.235,194.464 227.296,190.668 223.546 L 188.600 221.502 189.908 221.743 C 194.262 222.543,199.318 226.722,201.845 231.608 C 203.713 235.220,204.328 233.980,202.757 229.769 C 199.824 221.905,187.227 216.516,176.600 218.578 M244.834 224.842 C 244.482 225.723,244.449 225.733,244.425 224.967 C 244.411 224.508,244.520 224.013,244.667 223.867 C 245.144 223.389,245.226 223.863,244.834 224.842 M278.256 237.478 C 277.803 237.931,277.983 239.425,278.587 240.224 C 279.134 240.946,279.175 240.884,279.187 239.324 C 279.199 237.720,278.802 236.932,278.256 237.478 " stroke="none" fill="#29292b" fill-rule="evenodd"></path><path id="path2" d="M196.900 80.687 C 197.505 80.778,198.495 80.778,199.100 80.687 C 199.705 80.595,199.210 80.520,198.000 80.520 C 196.790 80.520,196.295 80.595,196.900 80.687 M202.505 80.687 C 203.114 80.779,204.014 80.777,204.505 80.682 C 204.997 80.587,204.500 80.511,203.400 80.514 C 202.300 80.517,201.897 80.595,202.505 80.687 M192.400 81.220 C 191.726 81.449,192.051 81.484,193.400 81.328 C 194.500 81.201,195.475 81.031,195.567 80.949 C 195.882 80.668,193.399 80.880,192.400 81.220 M206.033 80.949 C 206.125 81.031,207.100 81.201,208.200 81.328 C 209.549 81.484,209.874 81.449,209.200 81.220 C 208.201 80.880,205.718 80.668,206.033 80.949 M211.066 82.000 C 211.542 82.192,212.122 82.675,212.354 83.074 C 212.586 83.474,212.781 83.603,212.788 83.362 C 212.805 82.754,211.457 81.595,210.769 81.625 C 210.456 81.639,210.590 81.808,211.066 82.000 M186.600 82.986 C 185.055 83.693,185.774 83.703,187.600 83.000 C 188.370 82.703,188.730 82.455,188.400 82.448 C 188.070 82.442,187.260 82.683,186.600 82.986 M183.253 84.253 C 182.513 84.576,182.001 84.934,182.116 85.049 C 182.231 85.164,183.016 84.893,183.862 84.447 C 185.635 83.511,185.241 83.386,183.253 84.253 M212.049 87.200 C 212.016 87.530,211.889 88.250,211.767 88.800 C 211.575 89.664,211.607 89.703,211.999 89.088 C 212.248 88.697,212.375 87.977,212.281 87.488 C 212.186 87.000,212.082 86.870,212.049 87.200 M172.995 90.144 C 171.898 90.883,170.100 92.330,169.000 93.361 C 167.355 94.901,167.568 94.787,170.202 92.717 C 171.964 91.333,173.854 89.894,174.402 89.521 C 174.951 89.148,175.308 88.833,175.195 88.821 C 175.082 88.809,174.092 89.405,172.995 90.144 M211.031 91.418 C 210.610 93.097,210.969 93.204,216.724 93.118 L 222.200 93.036 216.800 92.818 L 211.400 92.600 211.515 91.500 C 211.660 90.118,211.370 90.069,211.031 91.418 M224.833 93.350 C 224.925 93.432,226.890 93.596,229.200 93.713 C 232.144 93.862,232.742 93.830,231.200 93.603 C 228.899 93.264,224.546 93.091,224.833 93.350 M236.433 94.550 C 236.525 94.632,237.680 94.804,239.000 94.931 C 240.555 95.080,241.048 95.042,240.400 94.821 C 239.414 94.484,236.110 94.259,236.433 94.550 M163.587 98.300 C 158.515 103.552,156.621 105.600,156.839 105.600 C 156.953 105.600,159.255 103.260,161.954 100.400 C 164.653 97.540,166.798 95.200,166.721 95.200 C 166.644 95.200,165.234 96.595,163.587 98.300 M243.000 95.600 C 244.692 96.031,246.144 96.031,244.800 95.600 C 244.250 95.424,243.350 95.283,242.800 95.287 C 241.902 95.294,241.922 95.326,243.000 95.600 M246.600 96.400 C 247.040 96.589,247.670 96.744,248.000 96.744 C 248.378 96.744,248.304 96.617,247.800 96.400 C 247.360 96.211,246.730 96.056,246.400 96.056 C 246.022 96.056,246.096 96.183,246.600 96.400 M249.200 96.920 C 249.200 97.192,254.093 98.841,254.295 98.638 C 254.381 98.552,253.495 98.167,252.326 97.782 C 251.157 97.398,249.975 97.000,249.700 96.899 C 249.425 96.797,249.200 96.807,249.200 96.920 M256.800 99.792 C 256.800 99.897,257.565 100.371,258.500 100.845 C 263.446 103.351,272.963 111.329,276.581 116.000 C 277.318 116.952,277.511 117.080,277.183 116.400 C 275.367 112.634,256.800 97.506,256.800 99.792 M154.267 108.067 C 153.648 108.732,153.213 109.347,153.300 109.434 C 153.387 109.521,153.972 109.055,154.600 108.400 C 155.228 107.745,155.663 107.129,155.566 107.033 C 155.470 106.937,154.885 107.402,154.267 108.067 M151.479 110.933 C 150.863 111.570,150.426 112.159,150.508 112.242 C 150.591 112.324,151.172 111.855,151.800 111.200 C 152.428 110.545,152.865 109.956,152.771 109.892 C 152.677 109.828,152.096 110.296,151.479 110.933 M148.600 113.227 C 147.940 113.650,147.605 113.997,147.856 113.998 C 148.106 113.999,148.736 113.646,149.256 113.213 C 150.445 112.223,150.159 112.229,148.600 113.227 M138.100 114.297 C 139.805 114.372,142.595 114.372,144.300 114.297 C 146.005 114.222,144.610 114.161,141.200 114.161 C 137.790 114.161,136.395 114.222,138.100 114.297 M131.800 114.810 C 131.266 115.047,131.598 115.086,132.800 114.927 C 133.790 114.796,134.675 114.624,134.767 114.544 C 135.114 114.243,132.564 114.472,131.800 114.810 M127.000 116.546 C 125.460 117.271,123.935 118.186,123.611 118.580 C 123.212 119.065,123.492 118.978,124.475 118.311 C 125.274 117.768,127.025 116.914,128.364 116.413 C 129.704 115.912,130.800 115.434,130.800 115.351 C 130.800 114.952,129.555 115.344,127.000 116.546 M276.664 120.183 C 276.069 120.634,276.016 120.882,276.387 121.471 C 276.660 121.905,276.777 121.957,276.675 121.600 C 276.581 121.270,276.779 120.685,277.114 120.300 C 277.843 119.464,277.672 119.419,276.664 120.183 M123.237 121.800 C 123.225 122.020,123.659 123.550,124.202 125.200 C 124.744 126.850,125.080 127.587,124.949 126.838 C 124.683 125.325,123.271 121.170,123.237 121.800 M277.854 125.400 C 278.274 127.303,278.848 128.446,278.556 126.800 C 278.420 126.030,278.146 125.130,277.949 124.800 C 277.714 124.408,277.681 124.616,277.854 125.400 M278.880 129.000 C 278.880 129.440,279.024 130.250,279.200 130.800 C 279.454 131.592,279.520 131.633,279.520 131.000 C 279.520 130.560,279.376 129.750,279.200 129.200 C 278.946 128.408,278.880 128.367,278.880 129.000 M124.893 130.400 C 124.893 131.170,124.975 131.485,125.076 131.100 C 125.176 130.715,125.176 130.085,125.076 129.700 C 124.975 129.315,124.893 129.630,124.893 130.400 M124.229 133.029 C 124.081 133.615,124.038 134.172,124.132 134.266 C 124.227 134.360,124.424 133.958,124.571 133.371 C 124.719 132.785,124.762 132.228,124.668 132.134 C 124.573 132.040,124.376 132.442,124.229 133.029 M279.815 141.118 C 279.823 145.983,279.913 150.046,280.015 150.147 C 280.341 150.470,280.421 136.274,280.105 134.236 C 279.917 133.026,279.806 135.668,279.815 141.118 M120.629 144.229 C 120.481 144.815,120.438 145.372,120.532 145.466 C 120.627 145.560,120.824 145.158,120.971 144.571 C 121.119 143.985,121.162 143.428,121.068 143.334 C 120.973 143.240,120.776 143.642,120.629 144.229 M119.856 147.284 C 119.721 147.788,119.627 148.560,119.646 149.000 C 119.665 149.440,119.845 149.098,120.046 148.240 C 120.436 146.578,120.270 145.740,119.856 147.284 M119.056 151.284 C 118.921 151.788,118.828 152.650,118.849 153.200 C 118.872 153.789,119.031 153.471,119.236 152.425 C 119.603 150.552,119.473 149.727,119.056 151.284 M280.644 152.200 C 280.973 153.671,281.202 153.990,281.194 152.967 C 281.191 152.545,281.005 151.930,280.782 151.600 C 280.485 151.162,280.448 151.324,280.644 152.200 M208.400 152.035 C 206.310 152.237,196.410 152.458,186.400 152.525 C 170.786 152.630,167.745 152.748,165.000 153.354 C 145.213 157.723,140.577 164.929,137.817 195.608 C 137.490 199.242,137.057 202.752,136.854 203.408 C 136.472 204.648,136.099 206.393,134.845 212.811 C 134.063 216.813,134.126 218.009,135.582 226.800 C 135.819 228.230,136.183 230.750,136.391 232.400 C 136.599 234.050,136.951 236.750,137.172 238.400 C 138.098 245.293,137.704 246.919,134.985 247.429 C 132.152 247.961,131.324 246.675,130.204 240.000 C 129.853 237.910,129.304 234.801,128.983 233.092 C 128.662 231.382,128.400 229.680,128.400 229.309 C 128.400 228.937,127.781 227.996,127.025 227.217 C 126.269 226.438,125.099 224.747,124.425 223.459 C 123.621 221.923,123.200 221.417,123.200 221.986 C 123.200 222.701,123.042 222.805,122.300 222.577 L 121.400 222.301 122.370 223.350 C 122.903 223.928,123.533 224.407,123.770 224.415 C 125.316 224.470,127.579 229.848,127.592 233.500 C 127.603 236.431,127.058 236.265,122.899 232.071 C 119.515 228.658,113.803 224.821,112.057 224.787 C 110.446 224.756,109.772 223.694,110.539 222.395 C 111.374 220.982,110.992 220.872,109.600 222.125 C 103.986 227.173,105.778 239.129,114.736 256.400 C 122.654 271.665,127.445 275.581,133.997 272.143 C 136.368 270.899,136.454 270.915,138.252 272.957 C 140.479 275.486,140.652 275.704,145.294 281.834 C 147.612 284.895,149.844 287.761,150.254 288.202 C 150.664 288.643,152.260 290.427,153.800 292.167 C 158.452 297.423,167.560 305.130,173.336 308.697 C 200.907 325.725,217.725 329.187,239.397 322.296 C 249.346 319.132,256.627 313.719,265.889 302.600 C 267.539 300.620,269.228 298.594,269.643 298.098 C 280.059 285.655,285.257 272.735,286.247 256.830 C 286.456 253.471,286.700 252.270,287.430 251.000 C 288.946 248.362,289.506 246.152,290.574 238.600 C 292.287 226.484,292.372 225.894,292.842 222.824 C 294.345 213.008,293.370 203.997,290.541 201.560 C 289.549 200.705,288.258 200.246,288.655 200.889 C 289.362 202.033,287.803 206.792,285.999 209.000 C 285.819 209.220,285.492 210.030,285.272 210.800 L 284.872 212.200 284.836 210.274 C 284.816 209.214,285.000 207.974,285.245 207.517 C 285.820 206.442,286.378 200.330,285.951 199.774 C 285.771 199.539,285.560 197.019,285.481 194.174 C 285.403 191.328,285.352 192.870,285.369 197.600 C 285.395 204.867,285.297 206.400,284.737 207.488 C 284.032 208.857,284.609 216.057,285.332 214.904 C 285.503 214.631,286.359 212.977,287.234 211.229 C 289.186 207.327,292.400 204.428,292.400 206.567 C 292.400 206.879,292.521 207.449,292.668 207.833 C 292.843 208.288,292.783 208.437,292.497 208.260 C 292.253 208.109,291.947 208.336,291.810 208.770 C 291.673 209.199,290.895 210.130,290.081 210.839 C 289.266 211.547,287.925 213.016,287.100 214.103 L 285.600 216.080 285.600 221.364 C 285.600 225.390,285.460 226.832,285.013 227.424 C 284.690 227.851,284.420 228.815,284.413 229.567 C 284.354 235.897,282.742 217.685,281.602 197.800 C 281.228 191.289,280.731 186.376,280.184 183.800 C 280.044 183.140,279.586 180.800,279.167 178.600 C 278.747 176.400,278.213 173.880,277.979 173.000 C 277.746 172.120,277.391 170.757,277.191 169.972 C 275.581 163.640,273.484 159.412,270.509 156.500 C 267.814 153.862,267.877 153.851,266.809 157.173 C 265.621 160.866,265.165 160.942,261.916 157.991 C 261.105 157.255,256.608 154.800,256.070 154.800 C 255.864 154.800,255.494 155.596,255.249 156.569 C 254.784 158.418,253.272 160.000,251.971 160.000 C 251.359 160.000,251.289 160.227,251.506 161.500 C 252.191 165.528,251.456 166.060,248.254 163.855 C 246.010 162.310,237.940 158.412,233.800 156.874 C 223.864 153.184,214.658 151.430,208.400 152.035 M212.400 154.451 C 224.713 156.422,241.606 162.809,248.509 168.103 C 250.184 169.388,252.511 170.391,253.830 170.398 C 255.678 170.407,256.683 166.327,255.634 163.075 C 254.926 160.879,254.908 159.050,255.579 157.451 L 256.226 155.908 258.860 158.478 C 261.813 161.360,263.735 164.104,263.846 165.600 C 264.283 171.452,264.513 173.522,264.802 174.200 C 264.989 174.640,265.242 176.890,265.363 179.200 C 265.485 181.510,265.796 185.380,266.055 187.800 C 266.314 190.220,266.537 192.965,266.552 193.900 C 266.567 194.835,266.719 195.600,266.889 195.600 C 267.060 195.600,267.200 195.757,267.200 195.949 C 267.200 196.761,263.969 196.767,260.347 195.961 C 258.286 195.502,255.790 194.977,254.800 194.794 C 253.810 194.611,250.660 193.909,247.800 193.235 C 237.788 190.876,234.732 192.297,236.836 198.332 C 237.191 199.351,237.155 199.702,236.642 200.215 C 236.067 200.790,236.023 200.746,236.154 199.723 C 236.232 199.105,236.217 198.825,236.119 199.100 C 236.004 199.424,235.106 199.600,233.571 199.600 C 232.267 199.600,231.200 199.759,231.200 199.953 C 231.200 200.254,230.155 200.698,229.338 200.744 C 228.458 200.793,227.160 205.632,227.123 209.000 C 227.062 214.609,230.313 233.181,231.914 236.365 C 233.421 239.362,238.000 240.186,238.000 237.460 C 238.000 236.961,238.252 236.208,238.560 235.787 C 239.040 235.131,239.040 234.907,238.560 234.222 C 237.712 233.010,237.877 231.494,239.243 227.950 C 240.493 224.709,240.993 224.382,241.309 226.600 C 241.432 227.460,241.497 227.269,241.540 225.924 C 241.628 223.176,241.076 223.277,239.460 226.306 C 237.923 229.187,237.422 228.676,238.677 225.508 C 240.684 220.443,244.694 216.114,249.686 213.622 C 250.284 213.323,250.678 212.927,250.563 212.740 C 250.447 212.553,250.606 212.400,250.915 212.400 C 251.224 212.400,252.090 212.087,252.839 211.705 C 254.471 210.871,262.021 210.716,264.600 211.464 C 265.480 211.719,267.147 212.141,268.304 212.401 C 274.475 213.793,279.035 217.991,277.933 221.266 C 276.910 224.306,276.113 224.314,274.675 221.300 C 273.577 218.997,272.255 217.298,270.394 215.800 C 269.847 215.360,270.323 216.001,271.451 217.224 C 272.825 218.714,273.801 220.269,274.408 221.933 C 275.160 223.995,275.440 224.378,276.059 224.181 C 276.933 223.904,277.502 224.946,276.891 225.705 C 276.360 226.364,275.539 229.910,275.584 231.347 C 275.604 231.978,275.443 232.707,275.226 232.968 C 274.964 233.285,275.015 233.793,275.382 234.499 C 275.785 235.277,275.807 235.601,275.465 235.726 C 275.122 235.851,275.140 236.132,275.533 236.795 C 275.900 237.415,275.937 237.823,275.652 238.108 C 275.373 238.387,275.368 238.767,275.637 239.270 C 275.857 239.680,275.936 240.180,275.812 240.381 C 275.688 240.581,275.786 240.868,276.029 241.018 C 276.292 241.180,276.374 241.814,276.231 242.574 C 276.099 243.280,276.105 243.972,276.245 244.112 C 278.113 245.979,276.203 261.835,273.428 267.498 C 272.863 268.652,272.400 269.691,272.400 269.808 C 272.400 270.486,268.318 275.861,264.390 280.356 C 262.735 282.250,260.855 284.520,260.212 285.400 C 259.568 286.280,258.942 287.090,258.819 287.200 C 258.485 287.499,255.536 291.570,254.328 293.400 C 253.747 294.280,252.805 295.487,252.236 296.083 C 251.666 296.678,251.188 297.308,251.172 297.483 C 251.120 298.082,244.686 303.015,240.847 305.400 C 240.492 305.620,239.632 306.277,238.934 306.859 C 238.236 307.441,236.616 308.297,235.333 308.761 C 234.050 309.225,232.693 309.780,232.317 309.995 C 231.942 310.209,230.952 310.473,230.117 310.581 C 229.283 310.688,226.451 311.080,223.825 311.452 C 217.349 312.367,208.367 311.228,203.000 308.811 C 202.560 308.612,201.783 308.333,201.274 308.190 C 200.764 308.047,199.774 307.435,199.074 306.831 C 198.373 306.227,197.170 305.388,196.400 304.966 C 195.630 304.545,194.470 303.777,193.823 303.261 C 193.175 302.744,192.230 302.163,191.723 301.971 C 191.215 301.778,190.800 301.359,190.800 301.041 C 190.800 300.723,190.184 300.259,189.432 300.011 C 188.680 299.762,187.849 299.300,187.586 298.984 C 186.931 298.193,181.325 294.400,180.813 294.400 C 180.585 294.400,179.724 293.710,178.900 292.868 C 178.075 292.025,176.385 290.689,175.144 289.900 C 170.025 286.646,161.913 276.692,160.424 271.840 C 160.215 271.158,159.565 269.340,158.979 267.800 C 158.394 266.260,157.769 264.190,157.591 263.200 C 157.412 262.210,157.090 260.680,156.875 259.800 C 156.660 258.920,156.366 255.578,156.222 252.374 C 156.077 249.170,155.716 245.148,155.419 243.437 C 155.122 241.726,154.933 239.848,154.999 239.263 C 155.065 238.678,154.923 237.960,154.684 237.668 C 154.367 237.280,154.386 236.914,154.757 236.320 C 155.087 235.791,155.129 235.369,154.876 235.116 C 154.623 234.863,154.670 234.371,155.012 233.713 C 155.402 232.960,155.427 232.459,155.110 231.762 C 154.794 231.069,154.811 230.668,155.174 230.231 C 155.449 229.900,155.549 229.268,155.400 228.800 C 155.253 228.338,155.349 227.703,155.612 227.386 C 155.992 226.928,155.957 226.759,155.445 226.562 C 154.745 226.293,154.548 225.200,155.200 225.200 C 155.736 225.200,155.711 223.871,155.164 223.324 C 154.886 223.046,154.811 221.890,154.956 220.144 C 155.081 218.635,155.326 215.330,155.499 212.800 C 155.672 210.270,155.961 207.967,156.141 207.682 C 156.329 207.386,156.263 206.917,155.985 206.582 C 155.588 206.104,155.653 206.000,156.351 206.000 C 156.818 206.000,157.200 205.820,157.200 205.600 C 157.200 205.380,157.388 205.200,157.617 205.200 C 157.846 205.200,159.061 204.437,160.317 203.504 C 162.591 201.815,163.467 201.289,167.548 199.162 C 173.076 196.281,186.057 195.857,188.980 198.461 C 189.189 198.648,189.656 198.800,190.019 198.800 C 190.381 198.800,191.290 199.106,192.039 199.480 C 196.088 201.503,199.600 199.017,199.600 194.128 C 199.600 189.780,197.518 188.243,189.136 186.402 C 177.592 183.868,161.903 186.497,156.471 191.877 C 156.181 192.164,155.821 192.415,155.671 192.432 C 155.522 192.450,154.932 192.500,154.361 192.543 C 153.272 192.625,152.000 193.623,152.000 194.395 C 152.000 194.644,151.820 194.736,151.600 194.600 C 151.380 194.464,151.200 194.003,151.200 193.576 C 151.200 193.149,151.380 192.800,151.600 192.800 C 151.820 192.800,152.000 192.418,152.000 191.951 C 152.000 191.242,151.901 191.184,151.400 191.600 C 150.911 192.006,150.800 191.984,150.800 191.482 C 150.800 191.144,151.025 190.786,151.300 190.688 C 151.575 190.590,151.666 190.366,151.502 190.190 C 151.338 190.014,150.769 190.068,150.239 190.310 C 149.290 190.742,149.283 190.731,149.834 189.675 C 150.569 188.267,150.556 185.160,149.813 184.176 C 149.490 183.749,149.220 182.809,149.213 182.087 C 149.200 180.795,147.992 176.633,147.134 174.929 C 146.893 174.450,146.791 173.557,146.909 172.944 C 147.054 172.185,146.911 171.675,146.461 171.340 C 145.900 170.923,145.879 170.720,146.318 170.000 C 146.803 169.207,146.782 169.182,145.984 169.609 C 144.944 170.165,144.504 169.838,145.188 169.015 C 145.485 168.656,145.583 167.988,145.429 167.372 C 145.259 166.698,145.314 166.423,145.584 166.590 C 145.814 166.733,146.000 166.519,146.000 166.110 C 146.000 162.294,153.042 157.777,163.400 154.951 C 170.359 153.052,201.667 152.733,212.400 154.451 M118.000 157.800 C 117.731 159.694,117.593 161.327,117.694 161.428 C 117.795 161.528,118.095 160.058,118.360 158.160 C 118.625 156.262,118.763 154.630,118.666 154.532 C 118.569 154.435,118.269 155.906,118.000 157.800 M281.695 156.400 C 281.695 156.950,281.832 157.940,282.000 158.600 C 282.272 159.670,282.305 159.692,282.305 158.800 C 282.305 158.250,282.168 157.260,282.000 156.600 C 281.728 155.530,281.695 155.508,281.695 156.400 M282.469 160.800 C 282.456 161.350,282.595 162.520,282.777 163.400 C 282.989 164.426,283.116 164.641,283.131 164.000 C 283.144 163.450,283.005 162.280,282.823 161.400 C 282.611 160.374,282.484 160.159,282.469 160.800 M117.059 165.060 C 116.745 168.772,116.791 177.308,117.143 180.600 C 117.285 181.920,117.400 178.275,117.400 172.500 C 117.400 166.725,117.381 162.000,117.359 162.000 C 117.336 162.000,117.201 163.377,117.059 165.060 M283.290 166.800 C 283.284 167.570,283.416 169.190,283.583 170.400 L 283.887 172.600 283.914 170.800 C 283.929 169.810,283.797 168.190,283.620 167.200 C 283.327 165.551,283.299 165.517,283.290 166.800 M284.300 177.600 C 284.417 179.690,284.576 181.475,284.656 181.567 C 284.936 181.890,284.749 176.978,284.422 175.400 C 284.201 174.338,284.160 175.077,284.300 177.600 M284.934 185.600 C 284.934 187.250,285.005 187.925,285.091 187.100 C 285.178 186.275,285.178 184.925,285.091 184.100 C 285.005 183.275,284.934 183.950,284.934 185.600 M117.701 185.000 C 117.705 185.880,117.787 186.193,117.883 185.695 C 117.979 185.198,117.975 184.478,117.875 184.095 C 117.775 183.713,117.696 184.120,117.701 185.000 M184.835 186.207 C 191.560 187.290,192.235 187.440,194.633 188.385 C 198.988 190.099,200.192 192.641,198.483 196.506 C 196.884 200.120,196.378 200.171,188.000 197.551 C 178.319 194.524,170.300 195.995,160.333 202.627 C 154.781 206.320,151.200 205.748,151.200 201.166 C 151.200 191.852,169.462 183.730,184.835 186.207 M118.047 188.233 C 118.073 189.095,118.239 190.340,118.415 191.000 C 118.618 191.756,118.654 191.238,118.515 189.600 C 118.267 186.686,117.975 185.831,118.047 188.233 M247.200 193.633 C 249.070 194.077,251.500 194.633,252.600 194.868 C 253.700 195.104,255.500 195.532,256.600 195.820 C 258.759 196.384,260.143 196.708,266.000 198.022 C 274.922 200.023,276.000 200.759,276.000 204.849 C 276.000 208.190,275.144 209.004,271.216 209.398 C 269.147 209.606,268.460 209.805,268.850 210.083 C 269.250 210.368,269.182 210.398,268.600 210.192 C 268.160 210.036,263.480 209.935,258.200 209.968 C 249.541 210.021,242.662 209.596,242.036 208.969 C 241.200 208.133,243.569 207.537,246.794 207.772 C 248.661 207.908,252.081 208.093,254.394 208.184 C 258.751 208.355,258.615 208.318,251.000 207.264 C 241.625 205.965,240.621 205.458,238.545 200.964 C 234.950 193.182,237.213 191.264,247.200 193.633 M118.886 194.000 C 118.883 194.770,119.024 195.850,119.200 196.400 C 119.650 197.804,119.665 196.337,119.223 194.200 L 118.892 192.600 118.886 194.000 M154.400 193.600 C 153.959 194.424,153.530 194.597,153.070 194.137 C 152.706 193.773,153.574 192.800,154.263 192.800 C 154.704 192.800,154.734 192.975,154.400 193.600 M119.623 199.633 C 119.636 200.385,119.805 201.720,119.998 202.600 C 120.269 203.830,120.298 203.552,120.126 201.400 C 119.887 198.420,119.585 197.358,119.623 199.633 M197.300 201.895 C 196.145 201.976,195.200 202.191,195.200 202.372 C 195.200 202.554,194.684 202.917,194.053 203.178 C 192.902 203.655,192.398 204.376,191.661 206.600 C 191.442 207.260,191.249 207.575,191.232 207.300 C 191.196 206.731,189.600 208.169,189.600 208.771 C 189.600 209.588,187.446 210.800,185.995 210.800 C 185.172 210.800,184.289 211.052,184.033 211.361 C 183.777 211.669,183.080 212.033,182.484 212.170 C 178.670 213.045,177.998 213.363,178.227 214.187 C 178.367 214.692,178.324 214.818,178.114 214.519 C 177.726 213.966,175.892 214.691,175.887 215.400 C 175.886 215.620,175.325 216.204,174.642 216.698 C 173.959 217.193,172.973 217.910,172.450 218.292 C 171.928 218.674,170.668 219.341,169.650 219.774 C 168.633 220.207,167.710 220.660,167.600 220.780 C 167.490 220.901,166.925 221.270,166.343 221.600 C 163.926 222.973,159.621 226.626,159.607 227.317 C 159.603 227.491,159.228 228.031,158.773 228.517 C 158.317 229.003,157.845 229.895,157.723 230.500 C 157.476 231.719,156.814 231.998,156.775 230.900 C 156.757 230.408,156.632 230.494,156.353 231.193 C 156.083 231.870,156.091 232.230,156.379 232.326 C 156.610 232.403,156.800 233.089,156.800 233.850 C 156.800 234.611,157.025 235.505,157.300 235.836 C 159.359 238.317,160.558 238.588,160.663 236.597 C 160.706 235.790,160.665 235.693,160.536 236.300 C 160.095 238.373,157.593 236.011,157.609 233.538 C 157.665 225.007,172.834 216.403,184.984 218.010 C 189.321 218.584,190.622 218.989,195.552 221.301 C 199.500 223.151,203.514 228.680,203.911 232.813 C 204.199 235.808,203.693 236.583,202.746 234.600 C 202.326 233.720,202.099 233.360,202.243 233.800 C 202.387 234.240,202.593 235.545,202.702 236.700 C 202.908 238.894,203.171 239.199,203.996 238.204 C 204.268 237.877,204.645 237.704,204.835 237.821 C 208.606 240.152,212.536 235.806,211.840 230.073 C 211.715 229.043,211.509 224.792,211.381 220.627 C 211.243 216.119,210.964 212.719,210.691 212.227 C 210.438 211.772,210.187 210.426,210.131 209.235 C 210.021 206.861,209.753 206.392,208.450 206.294 C 207.941 206.255,207.659 206.023,207.770 205.735 C 208.488 203.863,206.188 202.443,202.128 202.250 C 201.429 202.217,200.724 202.057,200.561 201.895 C 200.399 201.733,200.072 201.633,199.833 201.674 C 199.595 201.715,198.455 201.814,197.300 201.895 M120.480 206.200 C 120.468 206.860,120.603 208.210,120.780 209.200 C 121.016 210.528,121.105 210.685,121.120 209.800 C 121.132 209.140,120.997 207.790,120.820 206.800 C 120.584 205.472,120.495 205.315,120.480 206.200 M260.697 212.284 C 260.603 212.458,261.623 213.672,262.963 214.983 C 265.451 217.416,265.378 217.036,262.822 214.251 L 261.400 212.703 263.000 212.973 C 263.880 213.121,264.960 213.345,265.400 213.471 C 265.840 213.597,266.079 213.571,265.931 213.414 C 265.783 213.257,264.883 212.958,263.931 212.750 C 262.979 212.541,261.900 212.280,261.534 212.169 C 261.167 212.058,260.791 212.110,260.697 212.284 M121.668 214.400 C 121.662 214.950,121.811 215.760,122.000 216.200 L 122.344 217.000 122.332 216.200 C 122.326 215.760,122.176 214.950,122.000 214.400 L 121.680 213.400 121.668 214.400 M266.433 213.749 C 266.845 214.117,269.200 215.200,269.200 215.021 C 269.200 214.790,266.982 213.600,266.553 213.600 C 266.396 213.600,266.342 213.667,266.433 213.749 M249.758 217.720 C 250.148 218.005,250.614 218.860,250.793 219.620 C 251.061 220.757,251.125 220.822,251.159 219.989 C 251.204 218.872,250.210 217.200,249.501 217.200 C 249.251 217.200,249.367 217.434,249.758 217.720 M122.468 218.400 C 122.462 218.950,122.611 219.760,122.800 220.200 L 123.144 221.000 123.132 220.200 C 123.126 219.760,122.976 218.950,122.800 218.400 L 122.480 217.400 122.468 218.400 M245.636 220.300 C 245.597 221.272,246.887 222.817,247.700 222.773 C 247.975 222.758,247.793 222.550,247.295 222.310 C 246.797 222.070,246.229 221.317,246.031 220.637 C 245.743 219.644,245.665 219.578,245.636 220.300 M190.000 222.322 C 190.000 222.498,190.646 223.263,191.435 224.022 C 192.852 225.382,194.231 227.652,194.826 229.600 C 195.032 230.276,195.142 230.368,195.166 229.884 C 195.211 228.949,193.802 226.192,192.313 224.300 C 191.018 222.654,191.034 222.606,192.674 223.225 C 193.564 223.561,193.698 223.547,193.313 223.158 C 193.046 222.888,192.289 222.667,191.631 222.667 C 190.973 222.667,190.528 222.517,190.641 222.333 C 190.755 222.150,190.657 222.000,190.424 222.000 C 190.191 222.000,190.000 222.145,190.000 222.322 M266.928 224.400 C 266.928 225.830,267.001 226.415,267.089 225.700 C 267.178 224.985,267.178 223.815,267.089 223.100 C 267.001 222.385,266.928 222.970,266.928 224.400 M171.300 223.612 C 170.805 223.811,170.400 224.081,170.400 224.211 C 170.400 224.341,170.580 224.336,170.800 224.200 C 171.020 224.064,171.200 224.133,171.200 224.353 C 171.200 224.573,171.019 224.865,170.797 225.002 C 170.364 225.269,169.066 227.600,169.350 227.600 C 169.444 227.600,169.893 227.015,170.348 226.300 C 170.803 225.585,171.472 224.595,171.836 224.100 C 172.569 223.102,172.569 223.102,171.300 223.612 M197.977 227.000 C 200.363 229.732,200.561 229.920,200.081 229.000 C 199.851 228.560,198.891 227.480,197.947 226.600 L 196.231 225.000 197.977 227.000 M173.836 226.831 C 172.658 228.230,172.542 229.107,173.388 230.224 C 173.920 230.926,173.931 230.877,173.503 229.709 C 173.092 228.583,173.137 228.274,173.855 227.309 C 175.449 225.164,178.333 225.950,178.460 228.562 L 178.520 229.800 178.691 228.658 C 179.103 225.899,175.698 224.618,173.836 226.831 M290.800 227.400 C 290.800 228.390,290.620 229.200,290.400 229.200 C 289.958 229.200,289.842 226.291,290.267 225.867 C 290.739 225.394,290.800 225.569,290.800 227.400 M165.600 227.800 C 164.628 228.790,163.923 229.600,164.033 229.600 C 164.143 229.600,165.028 228.790,166.000 227.800 C 166.972 226.810,167.677 226.000,167.567 226.000 C 167.457 226.000,166.572 226.810,165.600 227.800 M266.229 228.229 C 266.081 228.815,266.051 229.384,266.161 229.494 C 266.271 229.604,266.481 229.215,266.629 228.629 C 266.776 228.042,266.806 227.473,266.696 227.363 C 266.586 227.253,266.376 227.642,266.229 228.229 M116.403 229.264 C 119.750 230.937,123.511 234.790,125.371 238.450 C 127.160 241.973,127.222 243.107,125.500 240.815 C 121.591 235.612,120.088 234.325,114.916 231.754 C 111.744 230.177,110.993 229.516,111.343 228.605 C 111.713 227.640,113.659 227.893,116.403 229.264 M241.813 229.000 C 242.137 230.609,243.669 233.171,245.041 234.400 C 245.857 235.131,245.760 234.923,244.681 233.630 C 243.869 232.657,242.837 230.947,242.388 229.830 C 241.925 228.678,241.677 228.319,241.813 229.000 M156.400 229.400 C 156.400 229.730,156.692 230.000,157.049 230.000 C 157.580 230.000,157.608 229.891,157.200 229.400 C 156.926 229.070,156.634 228.800,156.551 228.800 C 156.468 228.800,156.400 229.070,156.400 229.400 M260.342 230.649 C 259.436 231.406,258.245 232.378,257.696 232.810 C 256.928 233.414,256.801 233.719,257.144 234.133 C 257.860 234.995,254.995 235.989,250.200 236.542 C 249.296 236.646,249.409 236.695,250.657 236.740 C 252.605 236.811,259.902 235.446,262.200 234.581 C 263.365 234.143,264.103 233.479,264.916 232.139 C 266.433 229.638,266.020 229.475,264.433 231.949 C 263.287 233.734,262.160 234.694,261.723 234.256 C 261.634 234.167,262.019 233.418,262.580 232.591 C 264.627 229.575,263.156 228.298,260.342 230.649 M290.065 232.092 C 289.959 234.930,288.018 242.205,288.002 239.824 C 288.001 239.616,287.717 239.796,287.370 240.224 C 286.764 240.971,286.751 240.963,287.011 240.000 C 287.160 239.450,287.431 238.100,287.613 237.000 C 288.107 234.023,288.464 232.655,288.887 232.119 C 289.095 231.855,289.150 231.271,289.007 230.823 C 288.673 229.770,289.124 228.964,289.717 229.557 C 289.952 229.792,290.108 230.932,290.065 232.092 M177.804 230.394 C 177.670 230.610,176.984 230.954,176.280 231.158 C 175.355 231.425,175.237 231.538,175.856 231.564 C 176.326 231.584,177.136 231.246,177.656 230.813 C 178.175 230.381,178.476 230.021,178.324 230.013 C 178.172 230.006,177.938 230.177,177.804 230.394 M201.078 231.395 C 201.444 232.162,201.814 232.719,201.901 232.632 C 202.084 232.449,200.870 230.000,200.596 230.000 C 200.495 230.000,200.712 230.628,201.078 231.395 M168.131 233.400 C 168.133 234.940,168.205 235.521,168.292 234.691 C 168.379 233.861,168.377 232.601,168.289 231.891 C 168.200 231.181,168.129 231.860,168.131 233.400 M195.331 233.400 C 195.333 234.940,195.405 235.521,195.492 234.691 C 195.579 233.861,195.577 232.601,195.489 231.891 C 195.400 231.181,195.329 231.860,195.331 233.400 M246.400 235.551 C 246.400 235.933,248.328 237.005,248.574 236.760 C 248.670 236.664,248.220 236.282,247.574 235.911 C 246.928 235.540,246.400 235.378,246.400 235.551 M194.262 238.337 C 193.336 240.911,190.077 244.400,188.599 244.400 C 188.003 244.400,187.659 244.228,187.800 244.000 C 187.936 243.780,188.288 243.600,188.582 243.600 C 189.250 243.600,191.600 240.967,191.600 240.219 C 191.600 238.109,190.383 237.895,188.400 239.655 C 187.630 240.339,186.597 241.166,186.103 241.493 C 185.610 241.820,185.298 242.235,185.410 242.416 C 185.522 242.597,185.421 242.863,185.187 243.008 C 184.889 243.192,184.896 243.433,185.210 243.812 C 185.877 244.615,183.657 244.918,178.414 244.738 L 174.026 244.588 172.395 242.995 C 171.498 242.119,170.232 240.338,169.582 239.037 C 168.932 237.736,168.402 236.926,168.404 237.236 C 168.410 238.102,170.560 241.644,171.975 243.118 C 173.831 245.050,174.569 245.200,182.243 245.200 L 189.234 245.200 191.211 243.351 C 193.067 241.615,195.414 237.642,195.114 236.743 C 195.040 236.521,194.657 237.238,194.262 238.337 M113.703 237.919 C 114.089 238.255,114.809 238.729,115.303 238.975 C 115.796 239.220,116.261 239.866,116.335 240.410 C 116.409 240.955,116.789 241.760,117.180 242.200 C 117.570 242.640,118.100 243.630,118.357 244.400 C 119.991 249.289,124.610 257.435,127.800 261.054 C 130.773 264.427,132.638 267.821,132.227 269.114 C 131.307 272.015,121.288 265.888,118.775 260.887 C 118.475 260.289,117.928 259.350,117.561 258.800 C 115.151 255.194,110.000 243.605,110.000 241.790 C 110.000 241.245,109.856 240.800,109.680 240.800 C 109.257 240.800,109.587 237.934,110.082 237.317 C 110.565 236.715,112.730 237.076,113.703 237.919 M279.749 238.048 C 280.482 240.131,279.332 241.972,278.080 240.720 C 277.564 240.204,277.418 237.516,277.880 237.053 C 278.425 236.508,279.388 237.021,279.749 238.048 M132.613 250.710 C 132.488 251.035,132.632 251.504,132.932 251.751 C 133.232 251.998,133.805 253.460,134.204 255.000 C 134.603 256.540,135.151 258.160,135.420 258.600 C 135.690 259.040,136.122 260.067,136.381 260.882 C 136.639 261.697,137.286 262.777,137.818 263.282 C 138.351 263.787,138.789 264.352,138.793 264.539 C 138.797 264.725,139.520 265.695,140.400 266.695 C 141.280 267.695,142.000 268.754,142.000 269.048 C 142.000 269.343,142.721 270.532,143.602 271.692 C 144.484 272.851,145.537 274.466,145.942 275.280 C 146.498 276.396,146.793 276.647,147.140 276.300 C 147.487 275.953,147.600 276.057,147.600 276.720 C 147.600 277.204,147.763 277.600,147.963 277.600 C 148.162 277.600,148.224 277.988,148.100 278.463 C 147.960 278.998,148.030 279.229,148.285 279.071 C 148.510 278.932,149.650 280.209,150.818 281.909 C 153.358 285.608,155.487 288.232,158.249 291.066 C 159.376 292.222,160.218 293.249,160.119 293.348 C 160.020 293.446,160.339 293.654,160.828 293.809 C 161.317 293.964,162.455 294.768,163.358 295.596 C 164.261 296.424,166.118 297.820,167.484 298.700 C 168.850 299.579,169.860 300.407,169.728 300.538 C 169.597 300.670,169.945 300.951,170.503 301.163 C 171.060 301.375,171.580 301.709,171.658 301.905 C 171.794 302.247,176.671 305.600,177.032 305.600 C 177.128 305.600,177.760 306.095,178.436 306.700 C 179.112 307.305,180.575 308.284,181.688 308.876 C 182.801 309.469,184.133 310.319,184.648 310.767 C 185.163 311.214,186.025 311.691,186.563 311.826 C 187.102 311.962,187.644 312.337,187.768 312.661 C 187.893 312.986,188.196 313.126,188.442 312.974 C 188.688 312.822,189.004 312.875,189.145 313.093 C 189.285 313.310,190.750 314.177,192.400 315.020 C 194.050 315.862,195.530 316.763,195.689 317.021 C 195.848 317.279,196.838 317.723,197.889 318.007 C 198.940 318.291,200.029 318.701,200.308 318.918 C 203.623 321.486,218.550 323.094,226.990 321.792 C 232.431 320.952,238.807 319.424,240.482 318.557 C 241.097 318.240,241.600 318.150,241.600 318.359 C 241.600 318.782,243.852 317.763,244.216 317.175 C 244.343 316.969,244.778 316.800,245.182 316.800 C 246.950 316.800,260.400 306.020,260.400 304.603 C 260.400 304.551,261.615 303.227,263.100 301.662 C 264.585 300.097,266.430 297.968,267.200 296.930 C 267.970 295.893,269.087 294.508,269.681 293.854 C 270.276 293.199,270.680 292.529,270.579 292.366 C 270.478 292.202,270.542 292.008,270.723 291.934 C 271.227 291.728,274.344 287.368,274.884 286.114 C 275.148 285.501,275.687 284.678,276.082 284.284 C 276.477 283.891,276.800 283.225,276.800 282.804 C 276.800 282.384,277.035 281.896,277.322 281.720 C 277.609 281.544,278.259 280.410,278.766 279.200 C 279.273 277.990,279.936 276.718,280.239 276.374 C 280.542 276.029,280.905 275.174,281.045 274.474 C 281.185 273.773,281.457 273.200,281.650 273.200 C 281.843 273.200,282.000 272.660,282.000 272.000 C 282.000 271.340,282.146 270.800,282.324 270.800 C 282.687 270.800,283.347 268.313,284.024 264.400 C 284.811 259.852,285.112 259.062,285.159 261.420 C 285.182 262.531,285.036 263.611,284.835 263.820 C 284.635 264.029,284.384 265.190,284.277 266.400 C 283.547 274.733,278.380 286.137,271.319 295.000 C 271.144 295.221,270.467 296.121,269.814 297.000 C 269.162 297.880,268.442 298.800,268.214 299.044 C 267.987 299.289,267.271 300.162,266.623 300.985 C 262.994 305.600,255.728 312.868,252.293 315.319 C 239.421 324.504,219.637 327.387,202.800 322.532 C 197.090 320.886,184.179 315.029,180.338 312.343 C 179.754 311.934,179.152 311.600,179.000 311.600 C 178.505 311.600,171.914 307.177,167.200 303.681 C 159.886 298.258,150.375 288.305,144.303 279.722 C 143.494 278.579,142.484 277.229,142.057 276.722 C 141.631 276.215,140.357 274.675,139.226 273.300 C 137.219 270.859,135.351 269.986,134.630 271.152 C 134.510 271.345,134.005 271.604,133.506 271.728 C 132.732 271.920,132.789 271.791,133.900 270.847 C 135.654 269.356,135.317 266.770,131.765 254.455 C 130.428 249.822,130.442 248.547,131.820 249.450 C 132.441 249.857,132.751 250.350,132.613 250.710 M234.080 250.080 C 233.223 250.937,233.564 252.320,235.583 256.167 C 237.805 260.402,238.591 263.798,237.451 264.236 C 237.093 264.373,236.800 264.669,236.800 264.892 C 236.800 265.665,233.053 268.602,231.429 269.101 C 223.272 271.609,217.845 268.409,218.030 261.200 C 218.143 256.791,218.090 256.482,217.160 256.187 C 213.216 254.936,210.290 265.710,212.944 271.711 C 216.007 278.637,233.593 280.730,239.224 274.838 C 242.443 271.469,243.328 262.876,241.019 257.400 C 238.481 251.379,235.707 248.453,234.080 250.080 M286.532 251.033 C 286.212 251.868,285.600 251.723,285.600 250.813 C 285.600 250.292,285.795 250.100,286.175 250.246 C 286.491 250.367,286.652 250.721,286.532 251.033 M285.491 256.300 C 285.405 257.125,285.334 256.450,285.334 254.800 C 285.334 253.150,285.405 252.475,285.491 253.300 C 285.578 254.125,285.578 255.475,285.491 256.300 M240.016 266.300 C 238.090 276.760,216.000 279.709,216.000 269.506 C 216.000 268.104,216.114 268.117,218.133 269.744 C 222.137 272.972,228.334 273.543,233.822 271.191 C 235.970 270.270,239.600 266.769,239.600 265.619 C 239.600 265.169,239.756 264.800,239.946 264.800 C 240.137 264.800,240.168 265.475,240.016 266.300 M246.400 280.388 C 239.166 282.736,217.919 285.189,204.755 285.197 L 199.310 285.200 197.800 284.000 C 195.242 281.967,191.376 282.943,191.678 285.546 C 191.790 286.516,191.978 286.616,194.040 286.800 C 195.798 286.957,196.789 287.345,198.643 288.600 C 199.942 289.480,201.364 290.404,201.802 290.653 C 202.241 290.902,202.555 291.363,202.500 291.678 C 202.232 293.207,209.362 297.235,214.005 298.178 C 214.772 298.334,216.155 298.738,217.079 299.077 C 218.896 299.743,219.149 299.725,225.995 298.427 C 228.522 297.948,230.906 297.639,231.294 297.741 C 231.682 297.842,232.100 297.762,232.223 297.562 C 232.346 297.363,232.932 297.199,233.524 297.199 C 234.116 297.198,235.219 296.793,235.975 296.299 C 236.731 295.804,237.901 295.065,238.575 294.654 C 241.577 292.828,245.658 288.000,244.200 288.000 C 243.071 288.000,243.602 287.178,246.800 283.976 C 250.717 280.054,250.602 279.024,246.400 280.388 M246.400 281.902 C 246.400 282.068,245.815 282.407,245.100 282.656 C 244.385 282.904,242.196 283.673,240.235 284.365 C 228.898 288.365,215.939 289.433,203.200 287.416 C 201.110 287.085,199.229 286.811,199.020 286.807 C 198.806 286.803,198.825 286.615,199.063 286.377 C 199.360 286.080,201.579 286.079,206.515 286.373 C 219.039 287.119,230.173 285.976,240.600 282.874 C 244.701 281.655,246.400 281.370,246.400 281.902 " stroke="none" fill="#ba9173" fill-rule="evenodd"></path><path id="path3" d="M200.800 80.808 C 201.792 81.118,206.287 81.333,205.967 81.055 C 205.875 80.976,204.450 80.817,202.800 80.703 C 201.107 80.586,200.236 80.631,200.800 80.808 M196.500 81.087 C 197.105 81.178,198.095 81.178,198.700 81.087 C 199.305 80.995,198.810 80.920,197.600 80.920 C 196.390 80.920,195.895 80.995,196.500 81.087 M207.600 81.600 C 208.150 81.776,209.050 81.917,209.600 81.913 C 210.498 81.906,210.478 81.874,209.400 81.600 C 207.708 81.169,206.256 81.169,207.600 81.600 M190.600 82.000 C 189.581 82.438,190.632 82.438,192.000 82.000 C 192.804 81.743,192.843 81.677,192.200 81.668 C 191.760 81.662,191.040 81.811,190.600 82.000 M211.604 82.804 C 212.239 83.439,212.367 83.966,212.211 85.304 L 212.014 87.000 212.413 85.439 C 212.819 83.854,212.160 82.000,211.191 82.000 C 210.976 82.000,211.162 82.362,211.604 82.804 M185.000 83.978 C 184.120 84.395,183.580 84.736,183.800 84.738 C 184.346 84.742,187.502 83.264,187.000 83.240 C 186.780 83.230,185.880 83.562,185.000 83.978 M180.700 85.829 C 179.149 86.670,179.325 86.961,180.900 86.159 C 182.408 85.393,182.675 85.194,182.167 85.216 C 181.965 85.225,181.305 85.501,180.700 85.829 M176.100 88.446 C 174.737 89.319,174.295 89.906,175.500 89.243 C 176.418 88.739,177.856 87.627,177.600 87.619 C 177.490 87.616,176.815 87.988,176.100 88.446 M211.050 90.050 C 210.717 91.717,211.040 92.040,211.400 90.400 C 211.552 89.709,211.593 89.059,211.491 88.958 C 211.389 88.856,211.191 89.347,211.050 90.050 M172.100 91.225 C 170.945 92.111,170.000 92.924,170.000 93.031 C 170.000 93.138,170.990 92.478,172.200 91.565 C 174.110 90.123,174.691 89.581,174.300 89.607 C 174.245 89.610,173.255 90.338,172.100 91.225 M164.952 97.452 C 162.558 99.790,160.960 101.413,161.400 101.057 C 162.804 99.924,169.758 93.200,169.526 93.200 C 169.404 93.200,167.345 95.113,164.952 97.452 M217.916 93.497 C 219.299 93.575,221.459 93.574,222.716 93.495 C 223.972 93.416,222.840 93.352,220.200 93.353 C 217.560 93.353,216.532 93.418,217.916 93.497 M226.307 93.890 C 227.026 93.979,228.106 93.977,228.707 93.886 C 229.308 93.795,228.720 93.722,227.400 93.724 C 226.080 93.726,225.588 93.801,226.307 93.890 M232.600 94.400 C 233.260 94.568,234.430 94.706,235.200 94.707 L 236.600 94.708 235.000 94.377 C 232.845 93.931,230.834 93.951,232.600 94.400 M240.100 95.476 C 240.485 95.576,241.115 95.576,241.500 95.476 C 241.885 95.375,241.570 95.293,240.800 95.293 C 240.030 95.293,239.715 95.375,240.100 95.476 M245.200 96.400 C 246.568 96.838,247.619 96.838,246.600 96.400 C 246.160 96.211,245.440 96.062,245.000 96.068 C 244.357 96.077,244.396 96.143,245.200 96.400 M248.200 97.200 C 249.396 97.714,250.395 97.714,249.600 97.200 C 249.270 96.987,248.640 96.822,248.200 96.834 L 247.400 96.856 248.200 97.200 M254.762 99.398 C 255.951 99.954,257.005 100.328,257.105 100.228 C 257.303 100.031,255.111 99.048,253.565 98.641 C 253.034 98.502,253.573 98.842,254.762 99.398 M259.800 101.807 C 260.240 102.166,260.960 102.635,261.400 102.851 L 262.200 103.244 261.400 102.593 C 260.960 102.234,260.240 101.765,259.800 101.549 L 259.000 101.156 259.800 101.807 M158.159 104.515 C 155.540 107.307,154.616 108.400,154.875 108.400 C 154.970 108.400,156.354 106.960,157.951 105.200 C 159.548 103.440,160.779 102.000,160.687 102.000 C 160.594 102.000,159.457 103.132,158.159 104.515 M264.800 104.877 C 264.800 104.957,265.925 105.996,267.300 107.187 C 268.675 108.377,269.350 108.849,268.800 108.236 C 267.803 107.124,264.800 104.603,264.800 104.877 M272.032 111.400 C 277.257 117.016,278.261 118.942,276.500 119.968 C 276.115 120.192,275.989 120.381,276.220 120.388 C 279.264 120.476,277.325 116.130,272.122 111.200 L 269.800 109.000 272.032 111.400 M152.666 110.172 C 152.545 110.487,151.520 111.477,150.387 112.372 C 149.255 113.268,148.495 114.000,148.699 114.000 C 149.253 114.000,153.875 109.639,153.343 109.618 C 153.091 109.608,152.787 109.858,152.666 110.172 M141.000 114.400 L 134.600 114.631 140.800 114.709 C 144.271 114.753,147.264 114.617,147.600 114.400 C 147.930 114.187,148.020 114.048,147.800 114.091 C 147.580 114.134,144.520 114.273,141.000 114.400 M125.800 117.466 C 123.265 118.805,122.692 120.031,123.586 122.200 C 123.815 122.755,123.898 122.392,123.858 121.012 L 123.800 119.024 125.800 117.922 C 127.890 116.769,127.890 116.362,125.800 117.466 M276.028 121.400 C 276.028 121.620,276.286 122.250,276.600 122.800 C 276.914 123.350,277.172 123.620,277.172 123.400 C 277.172 123.180,276.914 122.550,276.600 122.000 C 276.286 121.450,276.028 121.180,276.028 121.400 M125.000 129.426 C 125.000 131.267,125.122 132.464,125.272 132.086 C 125.642 131.153,125.658 127.110,125.294 126.540 C 125.132 126.287,125.000 127.586,125.000 129.426 M278.056 127.200 C 278.056 127.530,278.211 128.160,278.400 128.600 C 278.617 129.104,278.744 129.178,278.744 128.800 C 278.744 128.470,278.589 127.840,278.400 127.400 C 278.183 126.896,278.056 126.822,278.056 127.200 M124.229 134.229 C 124.081 134.815,124.038 135.372,124.132 135.466 C 124.227 135.560,124.424 135.158,124.571 134.571 C 124.719 133.985,124.762 133.428,124.668 133.334 C 124.573 133.240,124.376 133.642,124.229 134.229 M279.755 140.200 C 279.756 143.060,279.820 144.178,279.897 142.683 C 279.974 141.189,279.974 138.849,279.896 137.483 C 279.818 136.118,279.755 137.340,279.755 140.200 M121.429 142.629 C 121.281 143.215,121.238 143.772,121.332 143.866 C 121.427 143.960,121.624 143.558,121.771 142.971 C 121.919 142.385,121.962 141.828,121.868 141.734 C 121.773 141.640,121.576 142.042,121.429 142.629 M120.600 145.600 C 120.448 146.291,120.407 146.941,120.509 147.042 C 120.611 147.144,120.809 146.653,120.950 145.950 C 121.283 144.283,120.960 143.960,120.600 145.600 M223.400 149.818 C 215.169 151.699,191.983 152.567,176.800 151.562 C 163.624 150.690,151.092 155.130,145.848 162.528 C 143.992 165.146,141.829 169.162,142.119 169.452 C 142.214 169.547,142.793 168.634,143.406 167.423 C 146.231 161.840,151.524 157.450,158.010 155.311 C 165.884 152.714,166.504 152.652,185.600 152.564 C 195.170 152.520,205.674 152.275,208.942 152.020 C 212.211 151.764,215.451 151.675,216.142 151.822 C 217.857 152.185,232.308 156.320,233.800 156.874 C 237.940 158.412,246.010 162.310,248.254 163.855 C 251.456 166.060,252.191 165.528,251.506 161.500 C 251.281 160.179,251.346 160.000,252.056 160.000 C 252.958 160.000,255.201 157.952,255.199 157.131 C 255.198 156.839,254.840 157.185,254.404 157.900 C 253.293 159.723,251.866 159.615,247.200 157.355 C 231.711 149.851,228.167 148.729,223.400 149.818 M279.656 149.600 C 279.656 149.930,279.811 150.560,280.000 151.000 C 280.217 151.504,280.344 151.578,280.344 151.200 C 280.344 150.870,280.189 150.240,280.000 149.800 C 279.783 149.296,279.656 149.222,279.656 149.600 M266.705 155.597 C 265.354 158.046,264.278 158.419,261.924 157.254 C 260.250 156.426,259.207 156.348,260.735 157.165 C 261.176 157.401,261.777 157.825,262.069 158.106 C 265.006 160.932,265.640 160.807,266.809 157.173 C 267.877 153.851,267.814 153.862,270.509 156.500 C 273.484 159.412,275.581 163.640,277.191 169.972 C 277.391 170.757,277.746 172.120,277.979 173.000 C 278.213 173.880,278.747 176.400,279.167 178.600 C 279.586 180.800,280.044 183.140,280.184 183.800 C 280.731 186.376,281.228 191.289,281.602 197.800 C 282.742 217.685,284.354 235.897,284.413 229.567 C 284.420 228.815,284.690 227.851,285.013 227.424 C 285.460 226.832,285.600 225.390,285.600 221.364 L 285.600 216.080 287.100 214.103 C 287.925 213.016,289.266 211.547,290.081 210.839 C 290.895 210.130,291.673 209.199,291.810 208.770 C 291.947 208.336,292.253 208.109,292.497 208.260 C 292.783 208.437,292.843 208.288,292.668 207.833 C 292.521 207.449,292.400 206.879,292.400 206.567 C 292.400 204.428,289.186 207.327,287.234 211.229 C 285.019 215.654,285.040 215.632,284.723 213.800 C 284.547 212.779,284.515 213.141,284.636 214.800 C 285.197 222.532,285.248 226.594,284.772 225.840 C 284.509 225.423,284.143 222.903,283.960 220.240 C 283.777 217.578,283.432 212.610,283.195 209.200 C 282.957 205.790,282.595 200.300,282.390 197.000 C 281.237 178.477,276.279 161.106,270.689 156.000 C 267.662 153.236,267.990 153.269,266.705 155.597 M280.868 154.200 C 280.862 154.640,281.011 155.360,281.200 155.800 C 281.638 156.819,281.638 155.768,281.200 154.400 C 280.943 153.596,280.877 153.557,280.868 154.200 M255.246 155.300 C 255.281 155.977,255.338 156.027,255.476 155.500 C 255.714 154.589,256.297 154.619,257.945 155.623 C 258.685 156.074,259.377 156.356,259.484 156.249 C 259.744 155.989,256.593 154.400,255.816 154.400 C 255.430 154.400,255.217 154.736,255.246 155.300 M117.693 162.800 C 117.693 163.570,117.775 163.885,117.876 163.500 C 117.976 163.115,117.976 162.485,117.876 162.100 C 117.775 161.715,117.693 162.030,117.693 162.800 M282.476 163.200 C 282.467 163.750,282.603 165.010,282.780 166.000 C 283.020 167.350,283.107 167.500,283.127 166.600 C 283.142 165.940,283.005 164.680,282.823 163.800 C 282.616 162.798,282.486 162.574,282.476 163.200 M117.363 172.400 C 117.363 176.030,117.423 177.515,117.498 175.700 C 117.572 173.885,117.572 170.915,117.498 169.100 C 117.423 167.285,117.363 168.770,117.363 172.400 M283.293 170.000 C 283.293 170.770,283.375 171.085,283.476 170.700 C 283.576 170.315,283.576 169.685,283.476 169.300 C 283.375 168.915,283.293 169.230,283.293 170.000 M141.091 171.884 C 139.609 176.530,138.195 184.837,137.802 191.200 C 137.501 196.084,136.898 200.486,135.913 205.000 C 133.197 217.446,133.254 216.614,134.576 224.429 C 137.692 242.864,137.692 246.778,134.576 246.794 C 132.331 246.805,131.757 245.808,130.779 240.200 C 130.511 238.660,130.152 236.860,129.982 236.200 C 129.322 233.642,129.591 236.952,130.378 241.087 C 131.481 246.874,132.264 247.940,135.029 247.421 C 137.700 246.920,138.094 245.262,137.172 238.400 C 136.951 236.750,136.599 234.050,136.391 232.400 C 136.183 230.750,135.819 228.230,135.582 226.800 C 134.126 218.009,134.063 216.813,134.845 212.811 C 136.099 206.393,136.472 204.648,136.854 203.408 C 137.057 202.752,137.491 199.242,137.820 195.608 C 138.961 182.974,139.896 176.955,141.444 172.274 C 141.795 171.215,141.996 170.263,141.892 170.159 C 141.788 170.054,141.427 170.831,141.091 171.884 M283.714 174.200 C 283.717 175.300,283.795 175.703,283.887 175.095 C 283.979 174.486,283.977 173.586,283.882 173.095 C 283.787 172.603,283.711 173.100,283.714 174.200 M284.109 178.000 C 284.109 178.990,284.187 179.395,284.282 178.900 C 284.378 178.405,284.378 177.595,284.282 177.100 C 284.187 176.605,284.109 177.010,284.109 178.000 M117.693 182.400 C 117.693 183.170,117.775 183.485,117.876 183.100 C 117.976 182.715,117.976 182.085,117.876 181.700 C 117.775 181.315,117.693 181.630,117.693 182.400 M284.531 184.200 C 284.533 185.740,284.605 186.321,284.692 185.491 C 284.779 184.661,284.777 183.401,284.689 182.691 C 284.600 181.981,284.529 182.660,284.531 184.200 M118.101 185.400 C 118.105 186.280,118.187 186.593,118.283 186.095 C 118.379 185.598,118.375 184.878,118.275 184.495 C 118.175 184.113,118.096 184.520,118.101 185.400 M171.866 186.209 C 170.142 186.498,168.612 186.861,168.466 187.016 C 168.320 187.170,168.920 187.187,169.800 187.055 C 176.939 185.978,179.996 185.978,187.600 187.055 C 188.590 187.195,189.290 187.190,189.155 187.044 C 188.081 185.874,177.031 185.341,171.866 186.209 M163.924 188.553 C 154.384 192.718,149.459 198.673,151.804 203.208 C 153.278 206.057,155.393 205.913,160.333 202.627 C 170.300 195.995,178.319 194.524,188.000 197.551 C 196.378 200.171,196.884 200.120,198.483 196.506 C 200.508 191.927,196.256 186.998,190.496 187.248 C 189.631 187.285,189.780 187.394,191.200 187.761 C 192.190 188.018,193.697 188.536,194.549 188.914 C 195.401 189.291,196.249 189.600,196.433 189.600 C 199.125 189.600,198.919 196.855,196.176 198.652 C 195.071 199.377,195.386 199.445,187.000 196.678 C 182.330 195.137,173.578 195.341,169.600 197.082 C 165.447 198.901,163.451 199.990,160.075 202.277 C 154.215 206.246,150.696 205.037,152.022 199.508 C 152.982 195.508,162.727 188.000,166.961 188.000 C 167.286 188.000,167.664 187.820,167.800 187.600 C 168.238 186.892,167.072 187.178,163.924 188.553 M284.946 192.200 C 284.947 194.400,285.014 195.249,285.095 194.087 C 285.176 192.924,285.176 191.124,285.093 190.087 C 285.011 189.049,284.945 190.000,284.946 192.200 M118.893 191.600 C 118.893 192.370,118.975 192.685,119.076 192.300 C 119.176 191.915,119.176 191.285,119.076 190.900 C 118.975 190.515,118.893 190.830,118.893 191.600 M239.000 192.671 C 236.660 193.301,236.484 196.503,238.545 200.964 C 240.621 205.458,241.625 205.965,251.000 207.264 C 258.615 208.318,258.751 208.355,254.394 208.184 C 252.081 208.093,248.661 207.908,246.794 207.772 C 243.569 207.537,241.200 208.133,242.036 208.969 C 242.662 209.596,249.541 210.021,258.200 209.968 C 263.480 209.935,268.160 210.036,268.600 210.192 C 269.182 210.398,269.250 210.368,268.850 210.083 C 268.460 209.805,269.147 209.606,271.216 209.398 C 275.144 209.004,276.000 208.190,276.000 204.849 C 276.000 200.759,274.922 200.023,266.000 198.022 C 260.143 196.708,258.759 196.384,256.600 195.820 C 255.500 195.532,253.700 195.104,252.600 194.868 C 251.500 194.633,249.070 194.077,247.200 193.633 C 243.366 192.724,240.187 192.351,239.000 192.671 M250.000 194.817 C 252.090 195.300,254.430 195.836,255.200 196.008 C 256.811 196.368,262.733 197.845,264.800 198.402 C 265.570 198.609,267.567 199.066,269.237 199.416 C 274.402 200.498,275.903 201.996,275.436 205.600 C 274.930 209.507,273.568 209.567,252.400 206.623 C 251.630 206.516,249.470 206.231,247.600 205.990 C 242.785 205.370,242.600 205.317,241.223 204.158 C 238.802 202.121,236.610 194.912,238.052 193.727 C 239.266 192.729,242.077 192.985,250.000 194.817 M120.093 200.400 C 120.093 201.170,120.175 201.485,120.276 201.100 C 120.376 200.715,120.376 200.085,120.276 199.700 C 120.175 199.315,120.093 199.630,120.093 200.400 M285.337 202.600 C 285.339 204.360,285.409 205.030,285.493 204.089 C 285.578 203.149,285.577 201.709,285.491 200.889 C 285.405 200.070,285.336 200.840,285.337 202.600 M120.493 204.000 C 120.493 204.770,120.575 205.085,120.676 204.700 C 120.776 204.315,120.776 203.685,120.676 203.300 C 120.575 202.915,120.493 203.230,120.493 204.000 M120.893 206.800 C 120.893 207.570,120.975 207.885,121.076 207.500 C 121.176 207.115,121.176 206.485,121.076 206.100 C 120.975 205.715,120.893 206.030,120.893 206.800 M284.238 207.623 C 283.658 208.937,283.607 209.504,283.956 210.716 L 284.384 212.200 284.228 210.488 C 284.135 209.464,284.316 208.289,284.678 207.563 C 285.011 206.896,285.208 206.275,285.116 206.182 C 285.023 206.090,284.628 206.738,284.238 207.623 M121.270 209.800 C 121.257 210.240,121.395 211.320,121.577 212.200 C 121.855 213.545,121.908 213.609,121.907 212.600 C 121.905 211.199,121.308 208.570,121.270 209.800 M254.429 211.208 C 253.454 211.414,252.473 211.767,252.249 211.991 C 252.024 212.216,251.505 212.400,251.096 212.400 C 250.687 212.400,250.447 212.553,250.563 212.740 C 250.678 212.927,250.284 213.323,249.686 213.622 C 244.694 216.114,240.684 220.443,238.677 225.508 C 237.620 228.175,237.824 229.405,238.962 227.229 C 239.472 226.256,239.808 225.086,239.709 224.629 C 239.577 224.014,239.630 223.940,239.915 224.343 C 240.372 224.987,241.007 224.258,240.584 223.574 C 239.395 221.650,246.491 215.438,251.908 213.661 C 257.554 211.808,259.194 212.004,262.825 214.964 C 263.389 215.424,263.057 215.056,262.088 214.146 C 260.211 212.383,260.298 211.797,262.349 212.385 C 263.044 212.585,264.234 212.647,264.994 212.523 C 266.243 212.321,268.720 212.734,270.614 213.461 C 271.050 213.628,271.234 213.579,271.084 213.336 C 270.948 213.117,269.794 212.715,268.519 212.444 C 267.243 212.173,265.638 211.779,264.951 211.569 C 263.111 211.004,256.471 210.776,254.429 211.208 M273.604 214.900 C 277.215 217.064,278.609 220.265,276.874 222.408 L 276.148 223.304 275.011 221.057 C 274.386 219.821,273.521 218.493,273.088 218.105 C 272.576 217.646,272.715 218.029,273.483 219.200 C 274.134 220.190,274.898 221.585,275.181 222.300 C 275.990 224.339,277.030 223.948,277.933 221.266 C 278.663 219.096,277.008 216.490,273.600 214.443 C 272.830 213.981,272.028 213.602,271.818 213.601 C 271.607 213.601,272.411 214.185,273.604 214.900 M268.800 214.511 C 268.800 214.587,269.385 215.078,270.100 215.601 C 270.904 216.190,271.184 216.287,270.833 215.855 C 270.300 215.199,268.800 214.207,268.800 214.511 M257.605 215.924 C 257.608 216.076,258.251 216.615,259.034 217.123 C 263.868 220.255,263.242 228.448,257.917 231.733 C 253.083 234.715,246.702 232.330,245.376 227.046 C 245.197 226.333,244.961 226.079,244.711 226.329 C 244.460 226.580,244.529 227.192,244.905 228.058 C 245.226 228.796,245.676 229.850,245.906 230.400 C 246.431 231.654,247.365 232.870,249.376 234.914 L 250.951 236.517 253.576 235.997 C 256.761 235.366,257.738 234.848,257.129 234.114 C 256.806 233.725,256.947 233.399,257.696 232.810 C 258.245 232.378,259.436 231.406,260.342 230.649 C 263.156 228.298,264.627 229.575,262.580 232.591 C 261.505 234.176,261.486 234.572,262.505 234.181 C 263.302 233.875,265.786 230.132,266.142 228.700 C 266.456 227.436,266.118 227.210,265.681 228.392 C 265.517 228.835,265.391 227.733,265.394 225.892 C 265.399 223.063,265.265 222.403,264.437 221.200 C 263.135 219.307,260.734 216.801,260.219 216.798 C 259.988 216.796,259.305 216.537,258.700 216.221 C 258.095 215.906,257.602 215.772,257.605 215.924 M247.670 217.085 C 246.959 217.429,246.468 217.802,246.579 217.912 C 246.690 218.023,247.053 217.888,247.387 217.611 C 247.720 217.334,248.534 217.188,249.196 217.285 C 250.580 217.488,250.693 217.385,249.681 216.843 C 249.179 216.575,248.574 216.647,247.670 217.085 M181.105 217.883 C 181.602 217.979,182.322 217.975,182.705 217.875 C 183.087 217.775,182.680 217.696,181.800 217.701 C 180.920 217.705,180.607 217.787,181.105 217.883 M186.305 218.567 C 187.904 218.874,189.778 219.323,190.470 219.565 C 191.163 219.806,191.816 219.917,191.922 219.811 C 192.028 219.705,191.864 219.540,191.557 219.445 C 191.251 219.349,190.413 219.083,189.696 218.855 C 188.979 218.626,187.269 218.342,185.896 218.224 L 183.400 218.009 186.305 218.567 M245.614 219.174 C 245.020 220.284,245.103 221.422,245.822 222.018 C 246.376 222.478,246.391 222.417,245.958 221.467 C 245.589 220.658,245.582 220.158,245.927 219.400 C 246.462 218.225,246.217 218.048,245.614 219.174 M165.600 222.584 C 164.170 223.551,162.370 225.030,161.601 225.871 L 160.201 227.400 161.801 225.922 C 162.680 225.110,164.652 223.625,166.181 222.622 C 167.711 221.620,168.791 220.806,168.581 220.812 C 168.372 220.819,167.030 221.616,165.600 222.584 M194.400 220.962 C 194.400 221.051,195.186 221.585,196.147 222.148 C 200.098 224.463,203.835 230.150,203.520 233.369 L 203.400 234.600 202.675 233.400 C 201.977 232.247,202.013 232.504,202.880 234.900 C 203.438 236.442,204.000 235.881,204.000 233.781 C 204.000 229.976,201.169 225.168,197.297 222.395 C 195.277 220.949,194.400 220.515,194.400 220.962 M266.537 224.200 C 266.539 225.960,266.609 226.630,266.693 225.689 C 266.778 224.749,266.777 223.309,266.691 222.489 C 266.605 221.670,266.536 222.440,266.537 224.200 M123.600 221.785 C 123.600 222.485,126.020 226.272,127.173 227.375 C 127.848 228.021,128.400 228.816,128.400 229.142 C 128.400 230.291,129.292 234.841,129.480 234.653 C 130.177 233.957,128.678 228.510,127.429 227.200 C 126.696 226.430,125.605 224.900,125.006 223.800 C 123.814 221.613,123.600 221.306,123.600 221.785 M189.600 222.600 C 190.607 223.671,191.217 223.984,190.415 223.018 C 190.149 222.697,190.047 222.247,190.189 222.018 C 190.339 221.775,190.073 221.600,189.554 221.600 L 188.661 221.600 189.600 222.600 M171.666 223.150 C 171.232 223.426,171.243 223.531,171.727 223.717 C 172.346 223.954,172.800 223.707,172.800 223.133 C 172.800 222.710,172.350 222.717,171.666 223.150 M244.667 223.867 C 244.520 224.013,244.411 224.508,244.425 224.967 C 244.449 225.733,244.482 225.723,244.834 224.842 C 245.226 223.863,245.144 223.389,244.667 223.867 M184.800 224.400 C 184.800 224.620,185.115 224.801,185.500 224.802 C 187.798 224.808,190.559 229.169,190.583 232.830 C 190.647 242.662,177.024 245.503,173.144 236.467 C 172.205 234.278,172.125 230.800,173.014 230.800 C 173.497 230.800,173.540 230.635,173.214 230.026 C 171.701 227.199,175.534 224.359,177.974 226.500 L 179.000 227.400 178.067 226.339 C 177.179 225.329,177.169 225.256,177.867 224.851 C 178.810 224.302,178.201 224.293,176.280 224.826 C 173.544 225.586,172.510 227.141,172.191 230.976 C 171.831 235.295,172.617 240.000,173.698 240.000 C 173.864 240.000,174.001 240.225,174.002 240.500 C 174.003 240.775,174.630 241.682,175.395 242.515 C 176.776 244.019,176.780 244.033,175.894 244.390 C 175.289 244.633,176.486 244.748,179.600 244.747 C 184.243 244.744,186.212 244.426,185.254 243.833 C 184.930 243.633,184.893 243.370,185.147 243.064 C 185.359 242.809,185.502 242.481,185.466 242.336 C 185.430 242.191,185.940 241.654,186.600 241.143 C 187.260 240.632,188.248 239.806,188.796 239.307 C 190.365 237.878,191.600 238.273,191.600 240.202 C 191.600 241.012,189.609 243.212,188.435 243.697 C 187.540 244.068,187.502 244.150,188.153 244.302 C 189.254 244.561,190.634 243.685,192.270 241.688 C 194.421 239.063,194.605 231.094,192.543 229.880 C 192.245 229.704,192.000 229.365,192.000 229.126 C 192.000 228.573,190.391 227.081,187.932 225.352 C 186.018 224.007,184.800 223.637,184.800 224.400 M198.000 226.600 C 198.746 227.370,199.447 228.000,199.557 228.000 C 199.667 228.000,199.146 227.370,198.400 226.600 C 197.654 225.830,196.953 225.200,196.843 225.200 C 196.733 225.200,197.254 225.830,198.000 226.600 M165.178 227.900 L 163.800 229.400 165.300 228.022 C 166.696 226.738,166.984 226.400,166.678 226.400 C 166.612 226.400,165.937 227.075,165.178 227.900 M159.664 228.123 C 158.182 229.908,156.992 234.777,157.900 235.338 C 158.065 235.440,158.141 234.776,158.068 233.862 C 157.969 232.611,158.236 231.631,159.147 229.900 C 160.351 227.612,160.493 227.124,159.664 228.123 M111.343 228.605 C 110.993 229.516,111.744 230.177,114.916 231.754 C 120.088 234.325,121.591 235.612,125.500 240.815 C 127.222 243.107,127.160 241.973,125.371 238.450 C 122.222 232.252,112.548 225.463,111.343 228.605 M194.760 233.400 C 194.631 235.160,194.406 237.050,194.259 237.600 C 194.090 238.232,194.220 238.108,194.613 237.262 C 195.039 236.343,195.196 235.027,195.113 233.062 L 194.993 230.200 194.760 233.400 M243.955 232.701 C 244.814 233.941,246.711 235.563,248.000 236.160 C 248.330 236.312,248.150 236.122,247.600 235.737 C 247.050 235.353,245.802 234.219,244.827 233.219 C 243.447 231.803,243.254 231.688,243.955 232.701 M168.468 235.800 C 168.462 236.240,168.611 236.960,168.800 237.400 C 169.238 238.419,169.238 237.368,168.800 236.000 C 168.543 235.196,168.477 235.157,168.468 235.800 M277.880 237.053 C 277.418 237.516,277.564 240.204,278.080 240.720 C 278.862 241.502,279.567 241.272,279.850 240.144 C 280.328 238.237,278.915 236.018,277.880 237.053 M279.187 239.324 C 279.175 240.884,279.134 240.946,278.587 240.224 C 277.684 239.029,277.894 236.840,278.856 237.434 C 279.045 237.551,279.194 238.402,279.187 239.324 M130.800 249.946 C 130.800 250.586,131.234 252.616,131.765 254.455 C 135.317 266.770,135.654 269.356,133.900 270.847 C 132.789 271.791,132.732 271.920,133.506 271.728 C 134.005 271.604,134.510 271.345,134.630 271.152 C 135.351 269.986,137.219 270.859,139.226 273.300 C 140.357 274.675,141.631 276.215,142.057 276.722 C 142.484 277.229,143.494 278.579,144.303 279.722 C 150.375 288.305,159.886 298.258,167.200 303.681 C 171.914 307.177,178.505 311.600,179.000 311.600 C 179.152 311.600,179.754 311.934,180.338 312.343 C 184.179 315.029,197.090 320.886,202.800 322.532 C 219.637 327.387,239.421 324.504,252.293 315.319 C 255.728 312.868,262.994 305.600,266.623 300.985 C 267.271 300.162,267.987 299.289,268.214 299.044 C 268.442 298.800,269.162 297.880,269.814 297.000 C 270.467 296.121,271.144 295.221,271.319 295.000 C 278.380 286.137,283.547 274.733,284.277 266.400 C 284.384 265.190,284.635 264.029,284.835 263.820 C 285.036 263.611,285.182 262.531,285.159 261.420 C 285.112 259.062,284.811 259.852,284.024 264.400 C 283.347 268.313,282.687 270.800,282.324 270.800 C 282.146 270.800,282.000 271.340,282.000 272.000 C 282.000 272.660,281.843 273.200,281.650 273.200 C 281.457 273.200,281.185 273.773,281.045 274.474 C 280.905 275.174,280.542 276.029,280.239 276.374 C 279.936 276.718,279.273 277.990,278.766 279.200 C 278.259 280.410,277.609 281.544,277.322 281.720 C 277.035 281.896,276.800 282.384,276.800 282.804 C 276.800 283.225,276.477 283.891,276.082 284.284 C 275.687 284.678,275.148 285.501,274.884 286.114 C 274.344 287.368,271.227 291.728,270.723 291.934 C 270.542 292.008,270.478 292.202,270.579 292.366 C 270.680 292.529,270.276 293.199,269.681 293.854 C 269.087 294.508,267.970 295.893,267.200 296.930 C 266.430 297.968,264.585 300.097,263.100 301.662 C 261.615 303.227,260.400 304.551,260.400 304.603 C 260.400 306.020,246.950 316.800,245.182 316.800 C 244.778 316.800,244.343 316.969,244.216 317.175 C 243.852 317.763,241.600 318.782,241.600 318.359 C 241.600 318.150,241.097 318.240,240.482 318.557 C 238.807 319.424,232.431 320.952,226.990 321.792 C 218.550 323.094,203.623 321.486,200.308 318.918 C 200.029 318.701,198.940 318.291,197.889 318.007 C 196.838 317.723,195.848 317.279,195.689 317.021 C 195.530 316.763,194.050 315.862,192.400 315.020 C 190.750 314.177,189.285 313.310,189.145 313.093 C 189.004 312.875,188.688 312.822,188.442 312.974 C 188.196 313.126,187.893 312.986,187.768 312.661 C 187.644 312.337,187.102 311.962,186.563 311.826 C 186.025 311.691,185.163 311.214,184.648 310.767 C 184.133 310.319,182.801 309.469,181.688 308.876 C 180.575 308.284,179.112 307.305,178.436 306.700 C 177.760 306.095,177.128 305.600,177.032 305.600 C 176.671 305.600,171.794 302.247,171.658 301.905 C 171.580 301.709,171.060 301.375,170.503 301.163 C 169.945 300.951,169.597 300.670,169.728 300.538 C 169.860 300.407,168.850 299.579,167.484 298.700 C 166.118 297.820,164.261 296.424,163.358 295.596 C 162.455 294.768,161.317 293.964,160.828 293.809 C 160.339 293.654,160.020 293.446,160.119 293.348 C 160.218 293.249,159.376 292.222,158.249 291.066 C 155.487 288.232,153.358 285.608,150.818 281.909 C 149.650 280.209,148.510 278.932,148.285 279.071 C 148.030 279.229,147.960 278.998,148.100 278.463 C 148.224 277.988,148.162 277.600,147.963 277.600 C 147.763 277.600,147.600 277.204,147.600 276.720 C 147.600 276.057,147.487 275.953,147.140 276.300 C 146.793 276.647,146.498 276.396,145.942 275.280 C 145.537 274.466,144.484 272.851,143.602 271.692 C 142.721 270.532,142.000 269.343,142.000 269.048 C 142.000 268.754,141.280 267.695,140.400 266.695 C 139.520 265.695,138.797 264.725,138.793 264.539 C 138.789 264.352,138.351 263.787,137.818 263.282 C 137.286 262.777,136.639 261.697,136.381 260.882 C 136.122 260.067,135.690 259.040,135.420 258.600 C 135.151 258.160,134.603 256.540,134.204 255.000 C 133.805 253.460,133.232 251.998,132.932 251.751 C 132.632 251.504,132.488 251.035,132.613 250.710 C 132.751 250.350,132.441 249.857,131.820 249.450 C 130.807 248.786,130.800 248.790,130.800 249.946 M285.600 250.813 C 285.600 251.723,286.212 251.868,286.532 251.033 C 286.652 250.721,286.491 250.367,286.175 250.246 C 285.795 250.100,285.600 250.292,285.600 250.813 M285.334 254.800 C 285.334 256.450,285.405 257.125,285.491 256.300 C 285.578 255.475,285.578 254.125,285.491 253.300 C 285.405 252.475,285.334 253.150,285.334 254.800 M239.600 265.619 C 239.600 266.769,235.970 270.270,233.822 271.191 C 228.334 273.543,222.137 272.972,218.133 269.744 C 216.114 268.117,216.000 268.104,216.000 269.506 C 216.000 278.200,234.653 277.633,239.223 268.800 C 239.902 267.488,240.388 264.800,239.946 264.800 C 239.756 264.800,239.600 265.169,239.600 265.619 M240.600 282.874 C 230.173 285.976,219.039 287.119,206.515 286.373 C 201.579 286.079,199.360 286.080,199.063 286.377 C 198.825 286.615,198.806 286.803,199.020 286.807 C 199.229 286.811,201.110 287.085,203.200 287.416 C 215.939 289.433,228.898 288.365,240.235 284.365 C 242.196 283.673,244.385 282.904,245.100 282.656 C 245.815 282.407,246.400 282.068,246.400 281.902 C 246.400 281.370,244.701 281.655,240.600 282.874 " stroke="none" fill="#916542" fill-rule="evenodd"></path><path id="path4" d="M262.000 213.039 C 262.000 213.170,262.738 214.115,263.641 215.139 C 268.031 220.118,268.429 228.421,264.491 232.900 C 263.461 234.072,264.634 233.732,267.598 232.001 C 270.495 230.309,272.738 228.032,274.088 225.412 C 276.126 221.455,271.141 215.117,264.600 213.350 C 262.345 212.741,262.000 212.699,262.000 213.039 M247.029 218.229 C 246.004 219.253,246.221 221.464,247.423 222.252 C 249.477 223.598,251.957 220.015,250.193 218.250 C 249.368 217.425,247.843 217.414,247.029 218.229 M191.600 223.072 C 191.600 223.211,192.024 223.881,192.542 224.562 C 196.761 230.103,196.601 237.353,192.145 242.569 C 191.408 243.432,190.872 244.205,190.954 244.287 C 191.480 244.814,197.936 242.441,198.796 241.405 C 199.072 241.072,199.501 240.797,199.749 240.793 C 203.560 240.735,202.814 232.631,198.537 227.634 C 196.580 225.349,191.600 222.073,191.600 223.072 M168.948 225.375 C 164.942 228.073,160.800 233.985,160.800 237.005 C 160.800 238.140,163.174 240.800,164.187 240.800 C 164.524 240.800,165.160 241.160,165.600 241.600 C 166.040 242.040,166.701 242.400,167.069 242.400 C 167.436 242.400,168.056 242.688,168.445 243.041 C 169.228 243.750,172.000 244.272,172.000 243.710 C 172.000 243.515,171.536 242.735,170.969 241.978 C 166.971 236.635,166.862 229.476,170.711 225.098 C 171.799 223.860,171.014 223.983,168.948 225.375 M240.204 225.594 C 239.807 226.236,238.000 231.685,238.000 232.239 C 238.000 233.168,240.050 235.200,240.987 235.200 C 241.490 235.200,242.107 235.447,242.357 235.748 C 242.826 236.313,245.739 236.875,246.563 236.559 C 246.825 236.458,246.130 235.455,244.965 234.253 C 242.897 232.117,241.200 228.672,241.200 226.609 C 241.200 225.556,240.603 224.948,240.204 225.594 M174.468 226.638 C 172.966 227.689,173.363 230.450,175.087 230.941 C 176.954 231.474,178.400 230.457,178.400 228.613 C 178.400 226.384,176.321 225.339,174.468 226.638 " stroke="none" fill="#edecec" fill-rule="evenodd"></path></g></svg>